<?xml version="1.0" encoding="utf-8"?>
<!-- Generator: Adobe Illustrator 19.1.0, SVG Export Plug-In . SVG Version: 6.00 Build 0)  -->
<svg version="1.1" id="Слой_1" xmlns="http://www.w3.org/2000/svg" xmlns:xlink="http://www.w3.org/1999/xlink" x="0px" y="0px"
	 viewBox="0 0 40 40" xml:space="preserve" width="40" height="40">
<style type="text/css">
	.st1{opacity:0.5;fill:#B7D74C;}
</style>
<path class="st1" d="M402.9,427.4c0-0.5-0.5-0.9-1.2-0.9h-14.3c-0.7,0-1.2,0.4-1.2,0.9s0.5,0.9,1.2,0.9h14.2
	C402.3,428.3,402.9,427.9,402.9,427.4z"/>
<path class="st1" d="M402.9,422.4c0-0.5-0.5-0.9-1.2-0.9h-14.3c-0.7,0-1.2,0.4-1.2,0.9s0.5,0.9,1.2,0.9h14.2
	C402.3,423.3,402.9,422.9,402.9,422.4z"/>
<path class="st1" d="M32.5,20.6V2.4c0-1.3-1.1-2.4-2.4-2.4H7.4C6.1,0,5,1.1,5,2.4v32.4c0,1.3,1.1,2.4,2.4,2.4h16.3v1.5
	c0,0.1,0,0.1,0,0.1c0.1,0.8,0.7,1.2,1.2,1.2c0.5,0,0.9-0.3,1.1-0.5l2.3-2l2.4,2.1c0.3,0.2,0.6,0.3,0.9,0.3c0.2,0,1.2-0.1,1.2-1.6
	v-7.1c1.4-1.3,2.4-3.1,2.4-5.2C35.1,23.8,34.1,21.9,32.5,20.6z M23.6,35.4L7.1,35.3c-0.4,0-0.6-0.3-0.6-0.6V2.5
	c0-0.4,0.3-0.6,0.6-0.6h22.6c0.4,0,0.6,0.3,0.6,0.6v17c-0.7-0.2-1.4-0.3-2.1-0.3c-3.8,0-6.8,3.1-6.8,6.8c0,0.8,0.1,1.5,0.4,2.2
	c0.1,0.2,0.1,0.4,0.2,0.6c0.1,0.2,0.2,0.4,0.3,0.6c0.1,0.2,0.1,0.3,0.2,0.4l0.1,0.1c0.1,0.1,0.2,0.1,0.2,0.2c0,0-0.2,0,0.8,0.9
	l0,0.9V35.4z M29.4,35.2C29.2,35,29,35,28.8,35c-0.2,0-0.5,0.1-0.6,0.2L26,37.1v-4.7c0.7,0.3,1.5,0.4,2.3,0.4c1,0,1.9-0.2,2.7-0.6
	l0.6,4.8L29.4,35.2z M28.3,31c-2.8,0-5-2.2-5-5s2.2-5,5-5s5,2.2,5,5S31.1,31,28.3,31z"/>
</svg>
