<?xml version="1.0" encoding="utf-8"?>
<!-- Generator: Adobe Illustrator 19.1.0, SVG Export Plug-In . SVG Version: 6.00 Build 0)  -->
<svg version="1.1" id="Слой_1" xmlns="http://www.w3.org/2000/svg" xmlns:xlink="http://www.w3.org/1999/xlink" x="0px" y="0px"
	 viewBox="0 0 40 40" style="enable-background:new 0 0 40 40;" xml:space="preserve">
<style type="text/css">
	.st0{fill:#565656;}
</style>
<path class="st0" d="M36.3,10h-3.2h-4.6h-1.3V6.5c0-1.4-1.1-2.5-2.5-2.5h-9.5c-1.4,0-2.5,1.1-2.5,2.5V10h-1.3H6.9H3.7
	c-2,0-3.7,1.6-3.7,3.7v18.7c0,2,1.6,3.7,3.7,3.7h3.2h4.6h17.1h4.6h3.2c2,0,3.7-1.6,3.7-3.7V13.7C40,11.6,38.3,10,36.3,10z M6.2,34
	H3.9c-1,0-1.9-0.8-1.9-1.9V13.5c0-1,0.8-1.9,1.9-1.9h2.3V34L6.2,34z M10.7,34H7.9V11.8h2.8V34z M14.7,6.5c0-0.4,0.3-0.7,0.7-0.7h9.5
	c0.4,0,0.7,0.3,0.7,0.7V10H14.7V6.5L14.7,6.5z M27.6,34H12.4V11.8h1.3h12.7h1.3V34L27.6,34L27.6,34z M32.2,34h-2.8V11.8h2.8V34z
	 M38.2,32.1c0,1-0.8,1.9-1.9,1.9H34V11.8h2.3c1,0,1.9,0.8,1.9,1.9V32.1L38.2,32.1L38.2,32.1z"/>
</svg>
