<?xml version="1.0" encoding="utf-8"?>
<!-- Generator: Adobe Illustrator 19.1.0, SVG Export Plug-In . SVG Version: 6.00 Build 0)  -->
<svg version="1.1" id="Слой_1" xmlns="http://www.w3.org/2000/svg" xmlns:xlink="http://www.w3.org/1999/xlink" x="0px" y="0px"
	 viewBox="0 0 30 30" style="enable-background:new 0 0 30 30;" xml:space="preserve">
<style type="text/css">
	.st0{fill:#565656;}
</style>
<path class="st0" d="M27.2,7.5h-2.4h-3.4h-1V4.9c0-1-0.8-1.9-1.9-1.9h-7.1c-1,0-1.9,0.8-1.9,1.9v2.6h-1H5.2H2.8
	C1.3,7.5,0,8.7,0,10.2v14C0,25.7,1.2,27,2.8,27h2.4h3.4h12.8h3.4h2.4c1.5,0,2.8-1.2,2.8-2.8v-14C29.9,8.7,28.7,7.5,27.2,7.5z
	 M4.6,25.4H2.9c-0.7,0-1.4-0.6-1.4-1.4V10.1c0-0.7,0.6-1.4,1.4-1.4h1.7V25.4L4.6,25.4z M8,25.4H5.9V8.8H8V25.4z M11,4.9
	c0-0.3,0.2-0.5,0.5-0.5h7.1c0.3,0,0.5,0.2,0.5,0.5v2.6H11V4.9L11,4.9z M20.6,25.4H9.3V8.8h1h9.5h1L20.6,25.4L20.6,25.4L20.6,25.4z
	 M24.1,25.4H22V8.8h2.1V25.4z M28.6,24c0,0.7-0.6,1.4-1.4,1.4h-1.7V8.8h1.7c0.7,0,1.4,0.6,1.4,1.4V24L28.6,24L28.6,24z"/>
</svg>
