<?xml version="1.0" encoding="utf-8"?>
<!-- Generator: Adobe Illustrator 19.1.0, SVG Export Plug-In . SVG Version: 6.00 Build 0)  -->
<svg version="1.1" id="Слой_1" xmlns="http://www.w3.org/2000/svg" xmlns:xlink="http://www.w3.org/1999/xlink" x="0px" y="0px"
	 viewBox="0 0 40 40" style="enable-background:new 0 0 40 40;" xml:space="preserve">
<style type="text/css">
	.st0{fill:#ffffff;}
</style>
<path class="st0" d="M33.4,5.3H31V3.2C31,1.7,29.9,1,28.8,1h-5.2V0.9c0-0.5-0.4-0.9-0.9-0.9h-9.5c-0.5,0-0.9,0.4-0.9,0.9V1H7.8
	c-1.6,0-3,1.3-3.1,2.9c0,0,0,0.1,0,0.1v32.8l0,0v0c0,1.7,1.4,3.1,3.1,3.1h23.1h0c2.1-0.1,4.3-1.4,4.3-4.8V7.1
	C35.3,6.1,34.4,5.3,33.4,5.3z M14.1,1.7h7.6v0.1v16.1l-3.3-2.8c-0.1,0-0.1-0.1-0.2-0.1l0,0c-0.1,0-0.2,0-0.3,0l0,0l0,0
	c0,0-0.1,0-0.2,0c0,0,0,0-0.1,0c-0.1,0-0.2,0.1-0.3,0.1l-3.3,2.5V1.9L14.1,1.7L14.1,1.7L14.1,1.7z M6.5,4.2C6.5,4.1,6.5,4.1,6.5,4.2
	c0-0.8,0.6-1.4,1.3-1.4h4.6v16.7c0,0.3,0.2,0.7,0.5,0.8c0.3,0.1,0.7,0.1,0.9-0.1l4.1-3.2l4.2,3.5c0,0,0.1,0.1,0.2,0.1h0
	c0,0,0.1,0,0.2,0c0,0,0,0,0,0c0,0,0,0,0.1,0c0,0,0,0,0.1,0h0c0.1,0,0.1,0,0.2,0c0.3-0.1,0.5-0.5,0.5-0.8V2.8h5.2
	c0.4,0,0.4,0.2,0.4,0.4v3.1v27c0,0.6-0.2,0.7-0.5,0.8H7.8c-0.1,0-0.2,0-0.3,0c0,0-0.1,0-0.2,0c0,0-0.1,0-0.1,0C7,34,7,34,6.9,34h0
	c-0.1,0-0.1,0-0.2,0.1c0,0,0,0,0,0c0,0,0,0,0,0L6.5,4.2L6.5,4.2z M33.5,35.2c0,2.3-1.4,2.9-2.6,3H7.8c-0.7,0-1.3-0.6-1.3-1.3v0
	c0-0.2,0.1-0.5,0.2-0.7c0,0,0,0,0,0c0,0,0-0.1,0.1-0.1C7,36,7,36,7,36l0,0c0,0,0.1,0,0.2-0.1c0,0,0,0,0,0c0,0,0.1,0,0.2,0
	c0,0,0,0,0,0c0.1,0,0.1,0,0.2,0h21c1.1,0,2.2-0.7,2.2-2.3v-0.3V7.1h2.5L33.5,35.2L33.5,35.2z"/>
</svg>
