<?xml version="1.0" encoding="utf-8"?>
<!-- Generator: Adobe Illustrator 19.1.0, SVG Export Plug-In . SVG Version: 6.00 Build 0)  -->
<svg version="1.1" id="Слой_1" xmlns="http://www.w3.org/2000/svg" xmlns:xlink="http://www.w3.org/1999/xlink" x="0px" y="0px"
	 viewBox="0 0 20 20" style="enable-background:new 0 0 20 20;" xml:space="preserve">
<style type="text/css">
	.st0{fill:#FFFFFF;}
</style>
<path class="st0" d="M19.5,4.3l-1.9-1.9c-0.3-0.3-0.7-0.5-1.2-0.5c-0.5,0-0.9,0.2-1.2,0.5l-7.8,7.8L4.8,7.7C4.5,7.3,4,7.1,3.5,7.1
	c-0.5,0-1,0.2-1.4,0.6L0.6,9.2C0.2,9.6,0,10.1,0,10.6c0,0.5,0.2,1,0.6,1.4l5.6,5.6c0.3,0.3,0.7,0.5,1.2,0.5c0.5,0,0.9-0.2,1.2-0.5
	L19.5,6.7C19.8,6.4,20,6,20,5.5C20,5,19.8,4.6,19.5,4.3z M18.7,6L7.9,16.9c-0.3,0.3-0.7,0.3-0.9,0l-5.6-5.7
	c-0.2-0.2-0.3-0.4-0.3-0.6c0-0.3,0.1-0.5,0.3-0.6l1.5-1.5C3,8.2,3.2,8.1,3.5,8.1S4,8.2,4.1,8.4L7,11.3c0.2,0.2,0.5,0.2,0.7,0
	l8.2-8.2c0.3-0.3,0.7-0.3,0.9,0l1.9,1.9c0.1,0.1,0.2,0.3,0.2,0.4C18.9,5.7,18.9,5.9,18.7,6z"/>
</svg>
