<?xml version="1.0" encoding="utf-8"?>
<!-- Generator: Adobe Illustrator 19.1.0, SVG Export Plug-In . SVG Version: 6.00 Build 0)  -->
<svg version="1.1" id="Слой_1" xmlns="http://www.w3.org/2000/svg" xmlns:xlink="http://www.w3.org/1999/xlink" x="0px" y="0px"
	 viewBox="0 0 30 30" style="enable-background:new 0 0 30 30;" xml:space="preserve">
<style type="text/css">
	.st0{fill:#5FB1DB;}
</style>
<path class="st0" d="M27,0H6.2C4.8,0,4.2,0.6,4,1.2C3.5,2.3,4.4,3.3,4.6,3.7l4.9,5.1l-2.2,2.2c-2,2-4.1,4.1-6.1,6.1
	c-1.8,1.8-1.8,3.3-0.1,5.1c1.7,1.7,3.3,3.4,5,5.1l1.5,1.4c0.2,0.2,0.6,0.6,0.9,0.8c0.6,0.4,1.2,0.6,1.8,0.6c0.6,0,1.3-0.2,1.8-0.6
	c0.3-0.2,0.6-0.6,1-0.9l8.1-8.1l4.9,4.9c0.2,0.2,1,0.8,1.8,0.8c0.7,0,1.9-0.5,1.9-2.4V3C30.1,1,28.6,0,27,0z M27.1,3.1l0,18.8
	l-4.7-4.6c-0.6-0.6-1.5-0.6-2.1,0l-0.2,0.2c-0.2,0.2-0.3,0.2-0.4,0.4l-8.5,8.5c-0.2,0.2-0.5,0.4-0.7,0.6c-0.2-0.2-0.4-0.3-0.6-0.5
	l-1.5-1.4c-1.7-1.8-3.4-3.4-5-5.1c-0.2-0.2-0.3-0.4-0.4-0.5c0.1-0.1,0.2-0.2,0.4-0.5c2-2,4.1-4.1,6.1-6.1l2.6-2.6
	c0.2-0.2,0.2-0.3,0.4-0.4l0.2-0.2c0.6-0.6,0.6-1.5,0-2.1L8,3L27.1,3.1L27.1,3.1C27.1,3,27.1,3,27.1,3.1z"/>
</svg>
