<?xml version="1.0" encoding="utf-8"?>
<!-- Generator: Adobe Illustrator 19.1.0, SVG Export Plug-In . SVG Version: 6.00 Build 0)  -->
<svg version="1.1" id="Слой_1" xmlns="http://www.w3.org/2000/svg" xmlns:xlink="http://www.w3.org/1999/xlink" x="0px" y="0px"
	 viewBox="2 -5 40 40" style="enable-background:new 2 -5 40 40;" xml:space="preserve">
<style type="text/css">
	.st0{fill:#ffffff;}
</style>
<path class="st0" d="M22-5C11-5,2,4,2,15s9,20,20,20s20-9,20-20S33-5,22-5z M22,33c-9.9,0-17.9-8.1-17.9-17.9
	C4.1,5.2,12.2-2.8,22-2.8c9.9,0,17.9,8.1,17.9,17.9C39.9,24.9,31.9,33,22,33z"/>
<path class="st0" d="M21.3,1.1C21.1,1,21,0.7,21,0.4s0.1-0.6,0.3-0.7c0.4-0.4,1.1-0.4,1.5,0C22.9-0.2,23,0.1,23,0.4S22.9,1,22.7,1.1
	c-0.2,0.2-0.4,0.3-0.7,0.3C21.7,1.5,21.4,1.4,21.3,1.1z"/>
<path class="st0" d="M8.4,15.1c0,0.3-0.1,0.6-0.3,0.7c-0.2,0.2-0.4,0.3-0.7,0.3c-0.3,0-0.5-0.1-0.7-0.3c-0.2-0.2-0.3-0.4-0.3-0.7
	c0-0.3,0.1-0.6,0.3-0.7c0.4-0.4,1.1-0.4,1.5,0C8.3,14.5,8.4,14.8,8.4,15.1z"/>
<path class="st0" d="M22.7,28.9c0.2,0.2,0.3,0.4,0.3,0.7s-0.1,0.5-0.3,0.7s-0.4,0.3-0.7,0.3c-0.3,0-0.6-0.1-0.7-0.3
	c-0.2-0.2-0.3-0.4-0.3-0.7s0.1-0.6,0.3-0.7C21.7,28.5,22.3,28.5,22.7,28.9z"/>
<path class="st0" d="M37.7,15.1c0,0.3-0.1,0.6-0.3,0.7c-0.2,0.2-0.4,0.3-0.7,0.3S36.1,16,36,15.8c-0.2-0.2-0.3-0.4-0.3-0.7
	c0-0.3,0.1-0.6,0.3-0.7c0.4-0.4,1.1-0.4,1.5,0C37.6,14.5,37.7,14.8,37.7,15.1z"/>
<path class="st0" d="M20.9,15.1V5.6c0-0.6,0.4-1,1-1s1,0.4,1,1V14h5.7c0.6,0,1,0.4,1,1s-0.4,1-1,1H22C21.4,16.1,20.9,15.6,20.9,15.1
	z"/>
</svg>
