<?xml version="1.0" encoding="utf-8"?>
<!-- Generator: Adobe Illustrator 19.1.0, SVG Export Plug-In . SVG Version: 6.00 Build 0)  -->
<svg version="1.1" id="Слой_1" xmlns="http://www.w3.org/2000/svg" xmlns:xlink="http://www.w3.org/1999/xlink" x="0px" y="0px"
	 viewBox="0 0 18 18" style="enable-background:new 0 0 18 18;" xml:space="preserve">
<style type="text/css">
	.st0{fill:#FFFFFF;}
</style>
<path class="st0" d="M9,0C4,0,0,4,0,9s4,9,9,9s9-4,9-9S14,0,9,0z M9,17.3c-4.6,0-8.4-3.7-8.4-8.4c0-4.6,3.7-8.4,8.4-8.4
	c4.6,0,8.4,3.7,8.4,8.4S13.6,17.3,9,17.3z"/>
<path class="st0" d="M9,2.4c-0.2,0-0.3,0.1-0.3,0.3v5.9H3.4c-0.2,0-0.3,0.1-0.3,0.3s0.1,0.3,0.3,0.3H9c0.2,0,0.3-0.1,0.3-0.3V2.7
	C9.3,2.6,9.2,2.4,9,2.4z"/>
</svg>
