<?xml version="1.0" encoding="utf-8"?>
<!-- Generator: Adobe Illustrator 19.1.0, SVG Export Plug-In . SVG Version: 6.00 Build 0)  -->
<svg version="1.1" id="Слой_1" xmlns="http://www.w3.org/2000/svg" xmlns:xlink="http://www.w3.org/1999/xlink" x="0px" y="0px"
	 viewBox="0 0 20 20" xml:space="preserve" width="20" height="20">
<style type="text/css">
	.st1{fill:#555555;}
</style>
<path class="st1" d="M19.6,2.5L12.1,10l7.5,7.5c0.6,0.6,0.6,1.5,0,2.1c-0.3,0.3-0.6,0.4-1,0.4s-0.7-0.2-1-0.4L10,12.1l-7.5,7.5
	c-0.3,0.3-0.6,0.4-1,0.4s-0.7-0.2-1-0.4c-0.6-0.6-0.6-1.5,0-2.1L7.9,10L0.4,2.5C-0.1,2-0.1,1,0.4,0.4C1-0.1,2-0.1,2.5,0.4L10,7.9
	l7.5-7.5c0.6-0.6,1.5-0.6,2.1,0C20.1,1,20.1,1.9,19.6,2.5z"/>
</svg>
