<?xml version="1.0" encoding="utf-8"?>
<!-- Generator: Adobe Illustrator 19.1.0, SVG Export Plug-In . SVG Version: 6.00 Build 0)  -->
<svg version="1.1" id="Слой_1" xmlns="http://www.w3.org/2000/svg" xmlns:xlink="http://www.w3.org/1999/xlink" x="0px" y="0px"
	 viewBox="0 0 245 30" style="enable-background:new 0 0 245 30;" xml:space="preserve">
<style type="text/css">
	.st0{fill:#65B9DF;}
	.st1{fill:#61B3D9;}
	.st2{fill:#FFFFFF;}
	.st3{fill:#5BAACD;}
	.st4{fill:#5664A6;}
	.st5{opacity:4.000000e-002;fill:#FFFFFF;enable-background:new    ;}
	.st6{fill:#D76056;}
	.st7{fill:#E1CF4A;}
	.st8{fill:#FEF8EF;}
	.st9{fill:#403F41;}
	.st10{fill:#DFA146;}
	.st11{opacity:8.000000e-002;fill:#FFFFFF;enable-background:new    ;}
	.st12{fill:#F3F4F4;}
	.st13{fill:#6B6B6B;}
	.st14{fill:#414042;}
	.st15{opacity:0.5;fill:#FFFFFF;enable-background:new    ;}
</style>
<g>
	<path class="st0" d="M45,26.3c0,2.1-1.7,3.8-3.8,3.8H3.8c-2.1,0-3.8-1.7-3.8-3.8V3.8C0,1.7,1.7,0,3.8,0h37.5c2.1,0,3.8,1.7,3.8,3.8
		v22.5H45z"/>
	<path class="st1" d="M43.9,1.1C44.6,1.8,45,2.7,45,3.7V15v11.3c0,1-0.4,2-1.1,2.6c-0.7,0.7-1.6,1.1-2.6,1.1H22.5H3.8
		c-1,0-2-0.4-2.6-1.1L43.9,1.1z"/>
	<g>
		<path class="st2" d="M13.2,18.7l-0.3-1.3h-2.3l-0.4,1.3H8.1l2.3-7h2.5l2.3,7H13.2z M12.4,15.8l-0.3-1.1c-0.1-0.3-0.2-0.6-0.3-1
			c-0.1-0.4-0.2-0.7-0.2-0.9c0,0.2-0.1,0.4-0.2,0.8s-0.3,1.1-0.6,2.2H12.4L12.4,15.8z"/>
		<path class="st2" d="M19,18.7l-1.4-5l0,0c0.1,0.9,0.1,1.5,0.1,2v3H16v-7h2.5l1.5,4.9l0,0l1.4-4.9h2.5v7h-1.7v-3.1
			c0-0.2,0-0.3,0-0.5s0-0.7,0.1-1.4l0,0l-1.4,5H19L19,18.7z"/>
		<path class="st2" d="M29.3,18.7h-4.1v-7h4.1v1.5H27v1.1h2.1v1.5H27v1.3h2.3V18.7z"/>
		<path class="st2" d="M36.8,18.7h-2.2l-1.4-2.2l-1.3,2.2h-2.1l2.3-3.6l-2.2-3.4H32l1.3,2.2l1.2-2.2h2.1l-2.2,3.5L36.8,18.7z"/>
	</g>
	<g>
		<path class="st2" d="M13.2,18.7l-0.3-1.3h-2.3l-0.4,1.3H8.1l2.3-7h2.5l2.3,7H13.2z M12.4,15.8l-0.3-1.1c-0.1-0.3-0.2-0.6-0.3-1
			c-0.1-0.4-0.2-0.7-0.2-0.9c0,0.2-0.1,0.4-0.2,0.8s-0.3,1.1-0.6,2.2H12.4L12.4,15.8z"/>
		<path class="st2" d="M19,18.7l-1.4-5l0,0c0.1,0.9,0.1,1.5,0.1,2v3H16v-7h2.5l1.5,4.9l0,0l1.4-4.9h2.5v7h-1.7v-3.1
			c0-0.2,0-0.3,0-0.5s0-0.7,0.1-1.4l0,0l-1.4,5H19L19,18.7z"/>
		<path class="st2" d="M29.3,18.7h-4.1v-7h4.1v1.5H27v1.1h2.1v1.5H27v1.3h2.3V18.7z"/>
		<path class="st2" d="M36.8,18.7h-2.2l-1.4-2.2l-1.3,2.2h-2.1l2.3-3.6l-2.2-3.4H32l1.3,2.2l1.2-2.2h2.1l-2.2,3.5L36.8,18.7z"/>
	</g>
	<path class="st3" d="M22.5,0"/>
</g>
<g>
	<path class="st4" d="M195,26.3c0,2.1-1.7,3.8-3.8,3.8h-37.5c-2.1,0-3.8-1.7-3.8-3.8V3.8c0-2.1,1.7-3.8,3.8-3.8h37.5
		c2.1,0,3.8,1.7,3.8,3.8V26.3z"/>
	<path class="st5" d="M193.9,1.1c0.7,0.7,1.1,1.6,1.1,2.6V15v11.3c0,1-0.4,2-1.1,2.6c-0.7,0.7-1.6,1.1-2.6,1.1h-18.8h-18.8
		c-1,0-2-0.4-2.6-1.1L193.9,1.1z"/>
	<path class="st3" d="M172.5,0"/>
	<g>
		<path class="st6" d="M172.5,10c-1.4-1.6-3.4-2.5-5.6-2.5c-4.1,0-7.5,3.4-7.5,7.5s3.4,7.5,7.5,7.5c2.2,0,4.3-1,5.6-2.6
			c-1.2-1.3-1.9-3-1.9-4.9S171.3,11.4,172.5,10z"/>
		<path class="st6" d="M172.5,10c-1.2,1.3-1.9,3.1-1.9,5s0.7,3.6,1.9,4.9c1.2-1.3,1.9-3,1.9-4.9S173.7,11.4,172.5,10z"/>
	</g>
	<path class="st7" d="M178.1,7.5c-2.2,0-4.3,1-5.6,2.5c-0.3,0.4-0.6,0.8-0.9,1.2h1.7c0.3,0.5,0.5,1,0.7,1.5h-3
		c-0.2,0.5-0.3,1-0.3,1.5h3.7c0,0.2,0.1,0.5,0.1,0.8s0,0.5,0,0.8h-3.7c0.1,0.5,0.2,1,0.3,1.5h3c-0.2,0.5-0.4,1-0.7,1.5h-1.7
		c0.2,0.4,0.5,0.8,0.9,1.2c1.4,1.6,3.4,2.6,5.6,2.6c4.1,0,7.5-3.4,7.5-7.5C185.6,10.9,182.3,7.5,178.1,7.5z"/>
</g>
<g>
	<path class="st8" d="M95,26.3c0,2.1-1.7,3.8-3.8,3.8H53.7c-2.1,0-3.8-1.7-3.8-3.8V3.8c0-2.1,1.7-3.8,3.8-3.8h37.5
		C93.3,0,95,1.7,95,3.8V26.3z"/>
	<g>
		<path class="st9" d="M61.4,15c0,0.8-0.2,1.3-0.6,1.7c-0.4,0.4-1,0.6-1.9,0.6h-1.3v-4.6H59c0.7,0,1.3,0.2,1.7,0.6
			C61.1,13.7,61.4,14.3,61.4,15z M60.3,15c0-1-0.4-1.5-1.3-1.5h-0.5v3h0.4C59.9,16.5,60.3,16,60.3,15z"/>
		<path class="st9" d="M62.2,17.3v-4.6h1v4.6H62.2z"/>
		<path class="st9" d="M67,16c0,0.4-0.1,0.7-0.4,1c-0.3,0.2-0.7,0.4-1.2,0.4s-0.9-0.1-1.3-0.3v-0.9c0.3,0.1,0.6,0.2,0.8,0.3
			c0.2,0.1,0.4,0.1,0.6,0.1c0.2,0,0.4,0,0.5-0.1s0.2-0.2,0.2-0.4c0-0.1,0-0.2-0.1-0.2c0-0.1-0.1-0.1-0.2-0.2
			c-0.1-0.1-0.3-0.2-0.6-0.3c-0.3-0.1-0.5-0.3-0.6-0.4s-0.3-0.3-0.3-0.4s-0.1-0.3-0.1-0.6c0-0.4,0.1-0.7,0.4-1
			c0.3-0.2,0.7-0.3,1.1-0.3c0.2,0,0.5,0,0.7,0.1s0.4,0.1,0.7,0.2l-0.3,0.8c-0.2-0.1-0.4-0.2-0.6-0.2c-0.2,0-0.3-0.1-0.5-0.1
			s-0.3,0-0.4,0.1c-0.1,0.1-0.1,0.2-0.1,0.3c0,0.1,0,0.2,0.1,0.2c0,0.1,0.1,0.1,0.2,0.2c0.1,0.1,0.3,0.2,0.6,0.3
			c0.4,0.2,0.7,0.4,0.9,0.6C66.9,15.5,67,15.7,67,16z"/>
		<path class="st9" d="M69.7,13.5c-0.4,0-0.6,0.1-0.8,0.4s-0.3,0.7-0.3,1.1c0,1,0.4,1.5,1.1,1.5c0.3,0,0.7-0.1,1.2-0.2v0.8
			c-0.4,0.2-0.8,0.2-1.3,0.2c-0.7,0-1.2-0.2-1.5-0.6c-0.4-0.4-0.5-1-0.5-1.7c0-0.5,0.1-0.9,0.3-1.2c0.2-0.4,0.4-0.6,0.7-0.8
			c0.3-0.2,0.7-0.3,1.1-0.3c0.4,0,0.9,0.1,1.3,0.3l-0.3,0.8c-0.2-0.1-0.3-0.2-0.5-0.2C70.1,13.5,69.9,13.5,69.7,13.5z"/>
		<path class="st9" d="M78.7,12.7h1l-1.6,4.6H77l-1.5-4.6h1l0.9,2.7c0,0.2,0.1,0.3,0.1,0.6c0,0.2,0.1,0.4,0.1,0.4
			c0-0.2,0.1-0.5,0.2-1L78.7,12.7z"/>
		<path class="st9" d="M82.8,17.3h-2.6v-4.6h2.6v0.8h-1.7v1h1.5v0.8h-1.5v1.2h1.7V17.3z"/>
		<path class="st9" d="M84.8,15.5v1.8h-1v-4.6h1.3c0.6,0,1.1,0.1,1.4,0.3c0.3,0.2,0.4,0.6,0.4,1c0,0.3-0.1,0.5-0.2,0.7
			c-0.1,0.2-0.4,0.4-0.6,0.5c0.7,1,1.1,1.7,1.3,2h-1.1l-1.1-1.8L84.8,15.5L84.8,15.5z M84.8,14.7h0.3c0.3,0,0.5-0.1,0.7-0.2
			c0.1-0.1,0.2-0.3,0.2-0.5s-0.1-0.4-0.2-0.5s-0.4-0.1-0.7-0.1h-0.3V14.7L84.8,14.7z"/>
		<circle class="st10" cx="73.3" cy="15" r="2.3"/>
	</g>
	<path class="st10" d="M95,20.6v5.6c0,0.5-0.1,1-0.3,1.5c-0.2,0.4-0.5,0.9-0.8,1.2s-0.7,0.6-1.2,0.8c-0.4,0.2-0.9,0.3-1.5,0.3H74.4
		H57.6L95,20.6z"/>
	<path class="st11" d="M93.9,1.1C94.6,1.8,95,2.7,95,3.7V15v11.3c0,1-0.4,2-1.1,2.6c-0.7,0.7-1.6,1.1-2.6,1.1H72.5H53.7
		c-1,0-2-0.4-2.6-1.1L93.9,1.1z"/>
</g>
<path class="st10" d="M144.3,22.5v3.8c0,2.1-1.7,3-3.8,3h-36c-2.1,0-3.8-0.9-3.8-3v-3.8"/>
<g>
	<path class="st12" d="M145,26.3c0,2.1-1.7,3.8-3.8,3.8h-37.5c-2.1,0-3.8-1.7-3.8-3.8V3.8c0-2.1,1.7-3.8,3.8-3.8h37.5
		c2.1,0,3.8,1.7,3.8,3.8V26.3z"/>
	<path class="st4" d="M100,7.5V3.7c0-2.1,1.7-3.8,3.9-3.8h37.2c2.1,0,3.9,1.7,3.9,3.8v3.8"/>
	<g>
		<path class="st4" d="M113,17.5c0.3-0.9,0.5-1.4,0.6-1.7l2.5-5.2h1.9l-4.4,8.6h-2l-0.7-8.6h1.7l0.3,5.2c0,0.2,0,0.4,0,0.8
			C113,17.1,113,17.4,113,17.5L113,17.5z"/>
		<path class="st4" d="M117.3,19.3l1.8-8.6h1.8l-1.8,8.6H117.3z"/>
		<path class="st4" d="M126.4,16.8c0,0.8-0.3,1.5-0.9,1.9c-0.6,0.5-1.4,0.7-2.3,0.7c-0.9,0-1.6-0.2-2.1-0.5v-1.6
			c0.8,0.4,1.5,0.6,2.1,0.6c0.4,0,0.8-0.1,1-0.2c0.2-0.2,0.4-0.4,0.4-0.7c0-0.2,0-0.3-0.1-0.4s-0.1-0.2-0.2-0.4
			c-0.1-0.1-0.3-0.3-0.7-0.6c-0.5-0.4-0.9-0.8-1.1-1.1c-0.2-0.4-0.3-0.8-0.3-1.2c0-0.5,0.1-1,0.4-1.4c0.2-0.4,0.6-0.7,1-0.9
			c0.4-0.2,1-0.3,1.5-0.3c0.8,0,1.6,0.2,2.3,0.6l-0.6,1.4c-0.6-0.3-1.2-0.4-1.7-0.4c-0.3,0-0.6,0.1-0.8,0.3
			c-0.2,0.2-0.3,0.4-0.3,0.7c0,0.2,0.1,0.4,0.2,0.6c0.1,0.2,0.4,0.4,0.9,0.7c0.5,0.3,0.8,0.7,1.1,1
			C126.3,15.8,126.4,16.3,126.4,16.8z"/>
		<path class="st4" d="M132.1,17.2h-2.8l-1,2h-1.9l4.5-8.6h2.2l0.9,8.6h-1.7L132.1,17.2z M132,15.7l-0.2-2.1c0-0.5-0.1-1-0.1-1.5V12
			c-0.2,0.5-0.4,1-0.6,1.5l-1.1,2.3h2V15.7z"/>
	</g>
	<path class="st2" d="M122.5,0"/>
	<path class="st5" d="M143.9,1.1c0.7,0.7,1.1,1.6,1.1,2.6V15v11.3c0,1-0.4,2-1.1,2.6s-1.6,1.1-2.6,1.1h-18.8h-18.8
		c-1,0-2-0.4-2.6-1.1L143.9,1.1z"/>
</g>
<g>
	<g>
		<path class="st13" d="M245,26.3c0,2.1-1.7,3.8-3.8,3.8h-37.5c-2.1,0-3.8-1.7-3.8-3.8V3.8c0-2.1,1.7-3.8,3.8-3.8h37.5
			c2.1,0,3.8,1.7,3.8,3.8V26.3z"/>
	</g>
	<rect x="200.3" y="4.7" class="st14" width="44.3" height="6"/>
	<rect x="205.8" y="13.7" class="st15" width="27" height="6"/>
	<rect x="208.1" y="16" class="st14" width="21.8" height="1.5"/>
	<rect x="235.1" y="13.7" class="st15" width="6" height="6"/>
	<rect x="235.8" y="16" class="st14" width="4.5" height="1.5"/>
</g>
</svg>
