<?xml version="1.0" encoding="utf-8"?>
<!-- Generator: Adobe Illustrator 19.1.0, SVG Export Plug-In . SVG Version: 6.00 Build 0)  -->
<svg version="1.1" id="Слой_1" xmlns="http://www.w3.org/2000/svg" xmlns:xlink="http://www.w3.org/1999/xlink" x="0px" y="0px"
	 viewBox="0 0 40 40" style="enable-background:new 0 0 40 40;" xml:space="preserve">
<style type="text/css">
	.st0{fill:#72B15F;}
</style>
<path class="st0" d="M40,8.6v-3V5.5c-0.1-1.1-0.8-1.8-1.8-1.9h-0.1h-6.1V2.3c0-1-0.8-1.8-1.8-1.8H9.1c-1,0-1.8,0.8-1.8,1.8v1.4H1.9
	H1.8C0.8,3.7,0.1,4.5,0,5.5v0.1v3C0,9.4-0.3,17.2,8.1,18.5c1.3,3.7,4.3,6.6,8.2,7.7v5l-6.7,3.2c0,0-0.1,0-0.1,0.1
	c-1,0.6-1.5,1.4-1.5,2.3v1v0.1c0.1,1,0.8,1.7,1.9,1.7h19.6c1.1,0,1.8-0.7,1.9-1.7v-0.1v-1c0-0.9-0.5-1.7-1.5-2.3l-0.1-0.1l-6.6-3.1
	v-5.1c3.7-1.1,6.7-4,8-7.6c2.8-0.4,5-1.4,6.5-3.2C40.2,12.6,40,9.1,40,8.6z M7.6,16.6c-6.2-1.5-5.7-7.5-5.7-7.8c0-0.1,0-0.1,0-0.1
	v-3c0-0.1,0-0.1,0-0.1h0.1h5.4v8.9c0,0.4,0,0.7,0.1,1c0,0.1,0,0.1,0,0.1C7.5,15.9,7.5,16.2,7.6,16.6C7.6,16.5,7.6,16.5,7.6,16.6z
	 M29.6,36.7v0.9l0,0H9.9l0,0v-0.9c0-0.3,0.3-0.5,0.5-0.6l6.9-3.2h4.9l6.9,3.2C29.3,36.2,29.6,36.4,29.6,36.7z M21.4,26.8V31h-3.3
	v-4.2H21.4z M19.7,24.9c-4.7,0-8.7-3.1-10-7.4l0,0c-0.1-0.3-0.1-0.5-0.2-0.8l0,0c-0.1-0.5-0.1-1-0.2-1.4c0-0.1,0-0.1,0-0.1
	c0-0.3-0.1-0.5-0.1-0.7V4.6V2.4h20.9v2.5v9.4c0,0.3,0,0.5-0.1,0.7c0,0.1,0,0.1,0,0.1c0,0.2-0.1,0.5-0.1,0.7v0.1
	c-0.1,0.3-0.1,0.5-0.1,0.7c0,0.1,0,0.1-0.1,0.1c-0.1,0.2-0.1,0.4-0.1,0.6C28.4,21.7,24.4,24.9,19.7,24.9z M36.4,14.3
	c-1.1,1.3-2.6,2.1-4.5,2.4v-0.1c0.1-0.4,0.1-0.7,0.1-1c0-0.1,0-0.1,0-0.1c0.1-0.4,0.1-0.7,0.1-1.1V5.5h6c0.1,0,0.1,0,0.1,0
	s0,0.1,0,0.1v3c0,0.1,0,0.1,0,0.1C38.1,8.8,38.4,11.9,36.4,14.3z M17.8,20.5c-0.1,0.4-0.5,0.6-0.9,0.6c-0.1,0-0.2,0-0.4-0.1
	c-3.1-1.2-3.7-3.9-3.7-5.2V6.4c0-0.5,0.4-0.9,0.9-0.9c0.5,0,0.9,0.4,0.9,0.9v9.5c0,0.1-0.1,2.5,2.5,3.4C17.8,19.5,18,20.1,17.8,20.5
	z"/>
</svg>
