<?xml version="1.0" encoding="utf-8"?>
<!-- Generator: Adobe Illustrator 19.1.0, SVG Export Plug-In . SVG Version: 6.00 Build 0)  -->
<svg version="1.1" id="Слой_1" xmlns="http://www.w3.org/2000/svg" xmlns:xlink="http://www.w3.org/1999/xlink" x="0px" y="0px"
	 viewBox="0 0 16 12" style="enable-background:new 0 0 16 12;" xml:space="preserve">
<style type="text/css">
	.st0{fill:#E0E0E0;}
</style>
<path class="st0" d="M16,1.4L16,1.4c0-0.3-0.1-0.6-0.3-0.8l0,0l0,0l-0.1-0.1l0,0c0,0-0.1,0-0.1-0.1l0,0c-0.1,0-0.1,0-0.2,0l0,0
	c-0.1,0-0.1,0-0.2,0H1.2c-0.1,0-0.2,0-0.3,0c0,0,0,0-0.1,0s-0.1,0-0.2,0l0,0c0,0-0.1,0-0.1,0.1l0,0L0.4,0.6c0,0,0,0-0.1,0.1
	C0.2,1,0.1,1.1,0,1.4l0,0v9.3l0,0c0,0.3,0.2,0.5,0.4,0.7c0.2,0.1,0.4,0.2,0.7,0.2h13.8l0,0l0,0c0.1,0,0.1,0,0.2,0l0,0
	c0.1,0,0.1,0,0.2,0l0,0c0.5-0.2,0.7-0.6,0.7-0.9v-0.1l0,0l0,0V1.4C16,1.5,16,1.5,16,1.4C16,1.5,16,1.5,16,1.4z M14.7,1.3L8.1,7.6
	L6.6,6.1l0,0l-5.2-5L14.7,1.3L14.7,1.3z M0.8,10.4V1.7l4.9,4.7L0.8,10.4z M7.9,10.9H1.5L6.3,7l1.5,1.5C7.9,8.6,7.9,8.6,8,8.6l0,0
	l0,0l0,0l0,0l0,0c0.1,0,0.1,0,0.2-0.1l1.4-1.4l4.8,3.8H7.9L7.9,10.9z M15.3,10.4l-4.9-4l4.9-4.8V10.4z"/>
</svg>
