<?xml version="1.0" encoding="utf-8"?>
<!-- Generator: Adobe Illustrator 19.1.0, SVG Export Plug-In . SVG Version: 6.00 Build 0)  -->
<svg version="1.1" id="Слой_1" xmlns="http://www.w3.org/2000/svg" xmlns:xlink="http://www.w3.org/1999/xlink" x="0px" y="0px"
	 viewBox="0 0 40 40" style="enable-background:new 0 0 40 40;" xml:space="preserve">
<style type="text/css">
	.st0{fill:#FFFFFF;}
</style>
<path class="st0" d="M32.9,12.4L32.9,12.4c0-0.1,0-0.1-0.1-0.2c0,0,0,0,0,0c0,0-0.1-0.1-0.1-0.2l0,0l-9.4-9.3l0,0l0,0l0,0
	c0,0-0.1-0.1-0.2-0.1c0,0,0,0,0,0c0,0-0.1,0-0.2,0l0,0c0,0-0.1,0-0.1,0H9.3c-1.2,0-2.2,1-2.2,2.2v30.5c0,1.2,1,2.2,2.2,2.2h21.4
	c1.2,0,2.2-1,2.2-2.2V12.6C32.9,12.6,32.9,12.5,32.9,12.4z M30.3,11.8h-6.7V5.1L30.3,11.8z M31.4,35.3c0,0.4-0.3,0.7-0.7,0.7H9.3
	c-0.4,0-0.7-0.3-0.7-0.7V4.7c0-0.4,0.3-0.7,0.7-0.7H22v8.5c0,0.4,0.3,0.8,0.8,0.8h8.6L31.4,35.3L31.4,35.3L31.4,35.3z M27.8,27.1
	c0,0.4-0.3,0.8-0.8,0.8H12.9c-0.4,0-0.8-0.3-0.8-0.8c0-0.4,0.3-0.8,0.8-0.8H27C27.4,26.3,27.8,26.6,27.8,27.1z M27.8,31.8
	c0,0.4-0.3,0.8-0.8,0.8H12.9c-0.4,0-0.8-0.3-0.8-0.8s0.3-0.8,0.8-0.8H27C27.4,31,27.8,31.3,27.8,31.8z M27.8,22.4
	c0,0.4-0.3,0.8-0.8,0.8H12.9c-0.4,0-0.8-0.3-0.8-0.8s0.3-0.8,0.8-0.8H27C27.4,21.6,27.8,22,27.8,22.4z M12.9,17H27
	c0.4,0,0.8,0.3,0.8,0.8s-0.3,0.8-0.8,0.8H12.9c-0.4,0-0.8-0.3-0.8-0.8C12.1,17.3,12.4,17,12.9,17z M12.1,8.5c0-0.4,0.3-0.8,0.8-0.8
	h4.9c0.4,0,0.8,0.3,0.8,0.8c0,0.4-0.3,0.8-0.8,0.8h-1.7v3.3c0,0.4-0.3,0.8-0.8,0.8c-0.4,0-0.8-0.3-0.8-0.8V9.3h-1.7
	C12.4,9.3,12.1,8.9,12.1,8.5z"/>
</svg>
