<?xml version="1.0" encoding="utf-8"?>
<!-- Generator: Adobe Illustrator 19.1.0, SVG Export Plug-In . SVG Version: 6.00 Build 0)  -->
<svg version="1.1" id="Слой_1" xmlns="http://www.w3.org/2000/svg" xmlns:xlink="http://www.w3.org/1999/xlink" x="0px" y="0px"
	 viewBox="0 0 40 40" style="enable-background:new 0 0 40 40;" xml:space="preserve">
<style type="text/css">
	.st0{fill:#FFFFFF;}
</style>
<path class="st0" d="M32.9,12.5L32.9,12.5c0-0.1,0-0.1-0.1-0.2c0,0,0,0,0,0c0,0-0.1-0.1-0.1-0.2l0,0l-9.4-9.3l0,0l0,0l0,0
	c0,0-0.1-0.1-0.2-0.1c0,0,0,0,0,0c0,0-0.1,0-0.2-0.1l0,0c0,0-0.1,0-0.1,0H9.3c-1.2,0-2.2,1-2.2,2.2v30.5c0,1.2,1,2.2,2.2,2.2h21.3
	c1.2,0,2.2-1,2.2-2.2V12.7C32.9,12.6,32.9,12.5,32.9,12.5z M30.2,11.9h-6.7V5.2L30.2,11.9z M31.3,35.3c0,0.4-0.3,0.7-0.7,0.7H9.3
	c-0.4,0-0.7-0.3-0.7-0.7V4.8c0-0.4,0.3-0.7,0.7-0.7H22v8.5c0,0.4,0.3,0.8,0.8,0.8h8.6L31.3,35.3L31.3,35.3L31.3,35.3z M27.7,27.1
	c0,0.4-0.3,0.8-0.8,0.8H12.9c-0.4,0-0.8-0.3-0.8-0.8c0-0.4,0.3-0.8,0.8-0.8H27C27.4,26.3,27.7,26.6,27.7,27.1z M27.7,31.7
	c0,0.4-0.3,0.8-0.8,0.8H12.9c-0.4,0-0.8-0.3-0.8-0.8s0.3-0.8,0.8-0.8H27C27.4,31,27.7,31.3,27.7,31.7z M27.7,22.4
	c0,0.4-0.3,0.8-0.8,0.8H12.9c-0.4,0-0.8-0.3-0.8-0.8c0-0.4,0.3-0.8,0.8-0.8H27C27.4,21.7,27.7,22,27.7,22.4z M12.9,17H27
	c0.4,0,0.8,0.3,0.8,0.8s-0.3,0.8-0.8,0.8H12.9c-0.4,0-0.8-0.3-0.8-0.8C12.1,17.4,12.5,17,12.9,17z M12.1,13.2c0-0.4,0.3-0.8,0.8-0.8
	h4.9c0.4,0,0.8,0.3,0.8,0.8c0,0.4-0.3,0.8-0.8,0.8h-4.8C12.5,14,12.1,13.6,12.1,13.2z M12.1,8.6c0-0.4,0.3-0.8,0.8-0.8h4.9
	c0.4,0,0.8,0.3,0.8,0.8c0,0.4-0.3,0.8-0.8,0.8h-4.8C12.5,9.3,12.1,9,12.1,8.6z"/>
</svg>
