<?xml version="1.0" encoding="utf-8"?>
<!-- Generator: Adobe Illustrator 19.1.0, SVG Export Plug-In . SVG Version: 6.00 Build 0)  -->
<svg version="1.1" id="Слой_1" xmlns="http://www.w3.org/2000/svg" xmlns:xlink="http://www.w3.org/1999/xlink" x="0px" y="0px"
	 viewBox="0 0 40 40" style="enable-background:new 0 0 40 40;" xml:space="preserve">
<style type="text/css">
	.st0{fill:#FFFFFF;}
</style>
<path class="st0" d="M33.3,2.5H6.6c-1.2,0-2.3,1-2.3,2.3v0.3c0,0.1,0,0.1,0,0.1v3.2v0.1v4.9c0,1.2,1,2.3,2.3,2.3h4
	c1.2,0,2.3-1,2.3-2.3V11h2.8v17.9h-3.1c-1.2,0-2.2,1-2.2,2.2v4.2c0,1.2,1,2.2,2.2,2.2h3.8c0.1,0,0.1,0.1,0.2,0.1h6.7
	c0.1,0,0.1,0,0.2-0.1h3.7c1.2,0,2.2-1,2.2-2.2v-4.2c0-1.2-1-2.2-2.2-2.2h-3V11h2.9v2.3c0,1.2,1,2.3,2.3,2.3h4c1.2,0,2.3-1,2.3-2.3
	V4.8C35.6,3.5,34.6,2.5,33.3,2.5z M33.8,13.3c0,0.2-0.2,0.4-0.4,0.4h-4c-0.2,0-0.4-0.2-0.4-0.4v-3.2c0-0.5-0.4-0.9-0.9-0.9h-4.8
	c-0.5,0-0.9,0.4-0.9,0.9v19.8c0,0.5,0.4,0.9,0.9,0.9h4c0.2,0,0.3,0.1,0.3,0.3v4.2c0,0.2-0.1,0.3-0.3,0.3h-4c-0.1,0-0.1,0-0.2,0.1
	h-6.2c-0.1,0-0.1-0.1-0.2-0.1h-4.1c-0.2,0-0.3-0.1-0.3-0.3v-4.2c0-0.2,0.1-0.3,0.3-0.3h4.1c0.5,0,0.9-0.4,0.9-0.9V10.1
	c0-0.5-0.4-0.9-0.9-0.9h-4.7c-0.5,0-0.9,0.4-0.9,0.9v3.2c0,0.2-0.2,0.4-0.4,0.4h-4c-0.2,0-0.4-0.2-0.4-0.4V8.4V8.3V5.2
	c0-0.1,0-0.1,0-0.1V4.8c0-0.2,0.2-0.4,0.4-0.4h26.7c0.2,0,0.4,0.2,0.4,0.4V13.3L33.8,13.3z"/>
</svg>
