<?xml version="1.0" encoding="utf-8"?>
<!-- Generator: Adobe Illustrator 19.1.0, SVG Export Plug-In . SVG Version: 6.00 Build 0)  -->
<svg version="1.1" id="Слой_1" xmlns="http://www.w3.org/2000/svg" xmlns:xlink="http://www.w3.org/1999/xlink" x="0px" y="0px"
	 viewBox="2 -5 40 40" style="enable-background:new 2 -5 40 40;" xml:space="preserve">
<style type="text/css">
	.st0{fill:#FFFFFF;}
</style>
<path class="st0" d="M36.5,11.1h-7.8V4.9c0-1.6-1.3-3-3-3H7.5c-1.6,0-3,1.3-3,3v11c0,1.6,1.3,3,3,3h1.8H15h0.3v6.3c0,1.6,1.3,3,3,3
	H29h5.7h1.8c1.6,0,3-1.3,3-3v-11C39.5,12.5,38.2,11.1,36.5,11.1z M16.1,17.3h-1.5c-0.3,0-4.7,0-5,0H7.4c-0.8,0-1.4-0.6-1.4-1.4v-11
	c0-0.8,0.6-1.4,1.4-1.4h18.2c0.8,0,1.4,0.6,1.4,1.4V12v3.8c0,0.8-0.6,1.4-1.4,1.4L16.1,17.3L16.1,17.3z M36.5,26.5h-2.2
	c-0.3,0-4.7,0-5,0h-11c-0.8,0-1.4-0.6-1.4-1.4v-6.3h8.8c0.6,0,1.1-0.2,1.6-0.5h5.9c0.4,0,0.8-0.3,0.8-0.8c0-0.4-0.3-0.8-0.8-0.8
	h-4.6c0.1-0.3,0.2-0.6,0.2-1v-3h7.7c0.8,0,1.4,0.6,1.4,1.4v11l0,0C37.9,25.9,37.3,26.5,36.5,26.5z"/>
<path class="st0" d="M33.9,21.9c0,0.4-0.3,0.8-0.8,0.8H21.7c-0.4,0-0.8-0.3-0.8-0.8c0-0.4,0.3-0.8,0.8-0.8h11.5
	C33.6,21.1,33.9,21.5,33.9,21.9z"/>
<path class="st0" d="M22.2,14.9H10.8c-0.4,0-0.8-0.4-0.8-0.9c0-0.4,0.3-0.8,0.8-0.8h11.4c0.4,0,0.8,0.3,0.8,0.8S22.6,14.9,22.2,14.9
	z"/>
<path class="st0" d="M10,6.4c0-0.4,0.4-0.8,0.9-0.8h6.9c0.4,0,0.8,0.3,0.8,0.8c0,0.4-0.3,0.8-0.8,0.8h-7C10.4,7.3,10,6.9,10,6.4z"/>
<path class="st0" d="M22.2,11H10.8c-0.4,0-0.8-0.3-0.8-0.8s0.3-0.8,0.8-0.8h11.4c0.4,0,0.8,0.3,0.8,0.8C23,10.8,22.6,11,22.2,11z"/>
</svg>
