<?xml version="1.0" encoding="utf-8"?>
<!-- Generator: Adobe Illustrator 19.1.0, SVG Export Plug-In . SVG Version: 6.00 Build 0)  -->
<svg version="1.1" id="Слой_1" xmlns="http://www.w3.org/2000/svg" xmlns:xlink="http://www.w3.org/1999/xlink" x="0px" y="0px"
	 viewBox="0 0 40 40" style="enable-background:new 0 0 40 40;" xml:space="preserve">
<style type="text/css">
	.st0{fill:#FFFFFF;}
</style>
<path class="st0" d="M32.8,12.3c0,0-0.1-0.1-0.1-0.2l-9.4-9.3c0,0-0.1-0.1-0.2-0.1c0,0-0.1,0-0.2-0.1h-0.1H9.3c-1.2,0-2.2,1-2.2,2.2
	v30.5c0,1.2,1,2.2,2.2,2.2h21.3c1.2,0,2.2-1,2.2-2.2V12.7c0.1-0.1,0.1-0.2,0.1-0.2C32.9,12.4,32.9,12.4,32.8,12.3z M23.5,5.2
	l6.7,6.7h-6.7V5.2z M31.3,35.3c0,0.4-0.3,0.7-0.7,0.7H9.3c-0.4,0-0.7-0.3-0.7-0.7V4.8c0-0.4,0.3-0.7,0.7-0.7H22v8.5
	c0,0.4,0.3,0.8,0.8,0.8h8.6L31.3,35.3z"/>
</svg>
