<?xml version="1.0" encoding="utf-8"?>
<!-- Generator: Adobe Illustrator 19.1.0, SVG Export Plug-In . SVG Version: 6.00 Build 0)  -->
<svg version="1.1" id="Слой_1" xmlns="http://www.w3.org/2000/svg" xmlns:xlink="http://www.w3.org/1999/xlink" x="0px" y="0px"
	 viewBox="0 0 40 40" style="enable-background:new 0 0 40 40;" xml:space="preserve">
<style type="text/css">
	.st0{fill:#FFFFFF;}
</style>
<g>
	<path class="st0" d="M29.5,15.3L29.5,15.3c0-0.1,0-0.1-0.1-0.2l0,0c0,0-0.1-0.1-0.1-0.2l0,0L21,6.7l0,0l0,0l0,0
		c0,0-0.1-0.1-0.2-0.1l0,0c0,0-0.1,0-0.2-0.1l0,0h-0.1H8.8c-1.1,0.1-2,1-2,2.1v26.9c0,1.1,0.9,2,2,2h18.8c1.1,0,2-0.9,2-2v-20
		C29.5,15.4,29.5,15.3,29.5,15.3z M27.2,14.7h-5.9V8.9L27.2,14.7z M28.3,35.3c0,0.4-0.3,0.6-0.6,0.6H8.8c-0.4,0-0.6-0.3-0.6-0.6V8.5
		c0-0.4,0.3-0.6,0.6-0.6H20v7.5c0,0.4,0.3,0.7,0.7,0.7h7.6V35.3L28.3,35.3L28.3,35.3z"/>
	<path class="st0" d="M29.4,4.5H10.3c-1.1,0-1.8,0.8-1.8,1.8v0.2h1.4V6.4c0-0.3,0.2-0.4,0.4-0.4l0,0h19.2c0.3,0,0.4,0.2,0.4,0.4
		v27.1c0,0.3-0.2,0.4-0.3,0.4v1.4c1,0,1.8-0.9,1.8-1.8V6.4C31.2,5.4,30.5,4.5,29.4,4.5z"/>
	<path class="st0" d="M31.2,2.5H12.1c-1,0-1.8,0.8-1.8,1.8v0.3h1.4V4.3c0-0.3,0.2-0.4,0.4-0.4l0,0h19.2c0.3,0,0.4,0.2,0.4,0.4v27.1
		c0,0.3-0.2,0.4-0.4,0.4v1.4c1,0,1.8-0.9,1.8-1.8V4.3C33.1,3.3,32.2,2.5,31.2,2.5z"/>
</g>
</svg>
