<?xml version="1.0" encoding="utf-8"?>
<!-- Generator: Adobe Illustrator 19.1.0, SVG Export Plug-In . SVG Version: 6.00 Build 0)  -->
<svg version="1.1" id="Слой_1" xmlns="http://www.w3.org/2000/svg" xmlns:xlink="http://www.w3.org/1999/xlink" x="0px" y="0px"
	 viewBox="0 0 40 40" style="enable-background:new 0 0 40 40;" xml:space="preserve">
<style type="text/css">
	.st0{fill:#FFFFFF;}
</style>
<path class="st0" d="M36.9,13.6l-7.8-7.8c-0.8-0.8-2-0.8-2.8,0l-3.8,3.8l-2.7,2.7l-2.2-2.2c0,0,0,0,0,0c0,0,0,0,0,0l-3.8-3.8
	c-0.8-0.8-2.1-0.8-2.9,0l-7.6,7.8c-0.8,0.8-0.8,2.1,0,2.9l3.8,3.8c0,0,0,0,0,0c0,0,0,0,0,0l3.6,3.6l-0.1,0.1
	c-0.1,0.1-0.1,0.2-0.2,0.3c-0.4,0.4-0.6,0.8-0.6,1.4s0.2,1,0.6,1.4l6.3,6.3c0.4,0.4,0.9,0.6,1.4,0.6c0.5,0,1-0.2,1.4-0.6l0.4-0.4
	l0.6,0.6l0,0c0.2,0.2,0.7,0.4,1.2,0.4c0.4,0,0.8-0.1,1.4-0.6l6.3-6.3c1.1-1.1,0.8-2.2,0.1-2.9l-0.5-0.5l4.2-4.2l3.8-3.8
	c0.4-0.4,0.6-0.9,0.6-1.4C37.5,14.5,37.2,14,36.9,13.6z M4.2,15.2L12,7.5c0.1-0.1,0.2-0.1,0.3-0.1c0.1,0,0.2,0,0.3,0.1l3.3,3.3
	l-8.4,8.3l-3.3-3.3C4.1,15.7,4.1,15.4,4.2,15.2z M18,32.9c0,0-0.1,0-0.2-0.1l-6.3-6.3c-0.1-0.1-0.1-0.2-0.1-0.2c0,0,0-0.1,0.1-0.2
	l0.2-0.2l0,0l0.4-0.4l1-1l0,0c0,0,0.1,0,0.2,0s0.1,0,0.2,0.1l6.3,6.3c0.1,0.1,0.1,0.4,0,0.4l-0.8,0.8l-0.9,0.9
	C18.1,32.9,18,32.9,18,32.9z M28,26.6L21.8,33c-0.1,0.1-0.2,0.1-0.2,0.1c0,0,0,0-0.1,0l-0.6-0.6l0.1-0.1l0,0c0,0,0.1-0.1,0.1-0.2
	c0,0,0.1-0.1,0.1-0.1c0,0,0-0.1,0-0.1c0-0.1,0.1-0.1,0.1-0.2l0,0c0.3-0.7,0.1-1.5-0.4-2.1l-6.3-6.4c-0.1-0.1-0.2-0.2-0.3-0.3
	c0,0-0.1,0-0.1,0c-0.1,0-0.1-0.1-0.2-0.1c0,0-0.1,0-0.1,0c-0.1,0-0.1,0-0.2,0c0,0-0.1,0-0.1,0c-0.1,0-0.2,0-0.3,0
	c-0.1,0-0.1,0-0.2,0c0,0-0.1,0-0.2,0c-0.1,0-0.2,0-0.3,0.1h0c-0.2,0.1-0.4,0.2-0.7,0.4l-0.1,0.1l-3.1-3.1l8.4-8.2l1.6,1.6L14.2,18
	c-0.6,0.6-0.8,1.6,0,2.4l1.7,1.7c0.1,0.1,0.2,0.1,0.3,0.2c0.3,0.2,0.6,0.3,0.9,0.3c0.1,0,0.2,0,0.3,0c0,0,0,0,0,0
	c0.1,0,0.2,0,0.3-0.1h0c0.1,0,0.2-0.1,0.3-0.1c0,0,0,0,0,0c0.1,0,0.2-0.1,0.3-0.2l2.9-2.9L28,26l0.1,0.1
	C28.3,26.2,28.3,26.3,28,26.6z M27.7,23.3L22.4,18l0.8-0.8c0.2-0.2,0.2-0.4,0.2-0.6s-0.1-0.4-0.2-0.6c-0.3-0.3-0.8-0.3-1.2,0
	l-1.3,1.3l-3.4,3.4c0,0-0.1,0-0.1,0.1l0,0l-1.7-1.7c0,0,0,0,0-0.1c0,0,0,0,0-0.1l7.7-7.7l4.6,4.6l3.7,3.7L27.7,23.3z M35.7,15.3
	l-3.2,3.2l-6.7-6.7l-1.6-1.6L27.5,7c0.1-0.1,0.2-0.1,0.3-0.1c0,0,0.2,0,0.3,0.1l7.8,7.8c0.1,0.1,0.1,0.2,0.1,0.3
	C35.8,15.1,35.8,15.2,35.7,15.3z"/>
</svg>
