<?xml version="1.0" encoding="utf-8"?>
<!-- Generator: Adobe Illustrator 19.1.0, SVG Export Plug-In . SVG Version: 6.00 Build 0)  -->
<svg version="1.1" id="Слой_1" xmlns="http://www.w3.org/2000/svg" xmlns:xlink="http://www.w3.org/1999/xlink" x="0px" y="0px"
	 viewBox="2 -5 40 40" style="enable-background:new 2 -5 40 40;" xml:space="preserve">
<style type="text/css">
	.st0{fill:#FFFFFF;}
</style>
<path class="st0" d="M28,3.4c0,0.4-0.3,0.8-0.8,0.8h-13c-0.4,0-0.8-0.3-0.8-0.8s0.3-0.8,0.8-0.8h13C27.7,2.6,28,2.9,28,3.4z"/>
<path class="st0" d="M28,7.7c0,0.4-0.3,0.8-0.8,0.8h-13c-0.4,0-0.8-0.3-0.8-0.8s0.3-0.8,0.8-0.8h13C27.7,6.9,28,7.2,28,7.7z"/>
<path class="st0" d="M28,12c0,0.4-0.3,0.8-0.8,0.8h-13c-0.4,0-0.8-0.3-0.8-0.8s0.3-0.8,0.8-0.8h13C27.7,11.2,28,11.5,28,12z"/>
<path class="st0" d="M34.5,17.5c-0.4-0.7-0.9-1.4-1.5-1.8v-16c0-1.2-0.9-2.1-2.1-2.1h-20c-1.2,0-2.1,0.9-2.1,2.1V28
	c0,1.2,0.9,2.1,2.1,2.1h14.3v1.3c0,0,0,0,0,0.1c0.1,0.7,0.6,1,1,1s0.7-0.3,0.9-0.4l2-1.7l2.1,1.8c0.3,0.2,0.6,0.3,0.8,0.3
	c0.2,0,1.1-0.1,1.1-1.4v-6.5C35.2,22.8,35.7,19.9,34.5,17.5z M25.2,28.4L25.2,28.4L25.2,28.4H10.9c-0.3,0-0.5-0.2-0.5-0.5V-0.4
	c0-0.3,0.2-0.5,0.5-0.5h19.8c0.3,0,0.5,0.2,0.5,0.5V15c-0.6-0.3-1.3-0.4-2-0.4c-0.8,0-1.5,0.1-2.2,0.4l0,0c-0.2,0.1-0.4,0.2-0.6,0.3
	c-0.1,0.1-0.2,0.1-0.3,0.2H14.2c-0.4,0-0.8,0.3-0.8,0.8s0.3,0.8,0.8,0.8h10.2c-0.4,0.5-0.7,1.1-0.9,1.8c-0.1,0.3-0.1,0.6-0.2,0.9
	h-9.1c-0.4,0-0.8,0.3-0.8,0.8c0,0.4,0.3,0.8,0.8,0.8h9.1c0.1,0.5,0.2,0.9,0.4,1.4c0.1,0.2,0.2,0.4,0.3,0.6l0,0
	c0.1,0.1,0.1,0.3,0.2,0.3c0,0,0,0.1,0.1,0.1c0.1,0.1,0.1,0.1,0.2,0.2H14.2c-0.4,0-0.8,0.3-0.8,0.8s0.3,0.8,0.8,0.8h11V28.4z
	 M31.7,30.3l-1.9-1.6c-0.1-0.1-0.3-0.2-0.5-0.2s-0.4,0-0.5,0.2l-1.9,1.6v-4.7c0,0,0.1,0,0.2,0.1c0.5,0.2,1,0.4,1.6,0.4l0,0l0,0
	c0.1,0,0.3,0,0.4,0c0,0,0,0,0.1,0c0,0,0,0,0.1,0s0.2,0,0.3,0c0,0,0,0,0.1,0c0,0,0,0,0.1,0l0,0c0,0,0.1,0,0.2,0s0.2,0,0.3,0
	c0,0,0.1,0,0.2,0s0.2,0,0.2,0h0.1l0,0c0,0,0,0,0.1,0l0,0l0,0H31c0,0,0,0,0.1,0s0.2,0,0.3-0.1l0,0l0,0c0,0,0,0,0.1,0L31.7,30.3z
	 M32,23.7c-0.1,0.1-0.2,0.2-0.3,0.3c-0.1,0.1-0.2,0.1-0.3,0.2c-0.1,0-0.3,0.1-0.4,0.2h-0.1c0,0,0,0-0.1,0s-0.1,0-0.2,0
	c-1.1,0.3-2.2,0.2-3.2-0.3c0,0-0.1,0-0.2-0.1h-0.1c0,0,0,0-0.1,0l0,0c-0.1-0.1-0.2-0.2-0.3-0.3l0,0c-0.1-0.1-0.3-0.2-0.4-0.3
	c0,0,0,0-0.1-0.1S26,23.1,25.9,23c0,0,0-0.1-0.1-0.1c-0.1-0.2-0.2-0.3-0.3-0.5c-0.3-0.7-0.5-1.4-0.5-2c0-1.5,0.8-3,2.3-3.8
	c0.2-0.1,0.3-0.2,0.5-0.3l0,0c0.9-0.3,1.9-0.3,2.8,0l0,0c0.2,0.1,0.3,0.1,0.5,0.2h0.1c0.1,0.1,0.2,0.1,0.3,0.2
	c0.6,0.4,1.1,0.9,1.5,1.6C34.1,20.1,33.6,22.3,32,23.7z"/>
<path class="st0" d="M14.3,7.7"/>
<path class="st0" d="M27.3,7.7"/>
</svg>
