<?xml version="1.0" encoding="utf-8"?>
<!-- Generator: Adobe Illustrator 19.1.0, SVG Export Plug-In . SVG Version: 6.00 Build 0)  -->
<svg version="1.1" id="Слой_1" xmlns="http://www.w3.org/2000/svg" xmlns:xlink="http://www.w3.org/1999/xlink" x="0px" y="0px"
	 viewBox="0 0 24 30" style="enable-background:new 0 0 24 30;" xml:space="preserve">
<style type="text/css">
	.st0{fill:#565656;}
</style>
<path class="st0" d="M21.5,3.8h-5.3C15.9,1.7,14.1,0,11.9,0c-2.2,0-4,1.6-4.3,3.8H2.4c-1,0-1.8,0.8-1.8,1.8v1.9
	c0,0.9,0.7,1.7,1.6,1.8v18.3c0,1.3,1.1,2.4,2.4,2.4h14.9c1.3,0,2.4-1.1,2.4-2.4V9.4c0.9-0.1,1.6-0.9,1.6-1.8V5.7
	C23.3,4.6,22.5,3.8,21.5,3.8z M11.8,1.4c1.5,0,2.7,1,2.9,2.4H8.9C9.2,2.4,10.4,1.4,11.8,1.4z M20.3,27.6c0,0.6-0.5,1-1,1H4.4
	c-0.6,0-1-0.5-1-1V9.4h16.9V27.6L20.3,27.6z M21.9,7.5c0,0.3-0.2,0.5-0.5,0.5H2.2C1.9,8,1.7,7.8,1.7,7.5V5.6c0-0.3,0.2-0.5,0.5-0.5
	h19.1c0.3,0,0.5,0.2,0.5,0.5L21.9,7.5L21.9,7.5z M6.5,25V13.2c0-0.4,0.3-0.7,0.7-0.7s0.7,0.3,0.7,0.7V25c0,0.4-0.3,0.7-0.7,0.7
	C6.8,25.8,6.5,25.4,6.5,25z M11.2,25V13.2c0-0.4,0.3-0.7,0.7-0.7c0.4,0,0.7,0.3,0.7,0.7V25c0,0.4-0.3,0.7-0.7,0.7
	C11.5,25.8,11.2,25.4,11.2,25z M16,25V13.2c0-0.4,0.3-0.7,0.7-0.7c0.4,0,0.7,0.3,0.7,0.7V25c0,0.4-0.3,0.7-0.7,0.7
	C16.3,25.8,16,25.4,16,25z"/>
</svg>
