<?xml version="1.0" encoding="utf-8"?>
<!-- Generator: Adobe Illustrator 19.1.0, SVG Export Plug-In . SVG Version: 6.00 Build 0)  -->
<svg version="1.1" id="Слой_1" xmlns="http://www.w3.org/2000/svg" xmlns:xlink="http://www.w3.org/1999/xlink" x="0px" y="0px"
	 viewBox="0 0 40 40" style="enable-background:new 0 0 40 40;" xml:space="preserve">
<style type="text/css">
	.st0{fill:#72B15F;}
</style>
<g>
	<path class="st0" d="M22,9.1v11.8c0,1.7,1.4,3.1,3.1,3.1h2.5l-4.5,7.5c-0.5,0.8-0.3,1.4-0.1,1.7c0.3,0.5,0.9,0.8,1.5,0.8h0.1h7
		c1.5,0,2.3-0.9,2.6-1.4l5.3-10.2c0.1-0.1,0.1-0.2,0.2-0.3l0.1-0.1c0.1-0.1,0.1-0.2,0.1-0.3c0.1-0.3,0.2-0.6,0.2-0.9v-8
		c0-0.6-0.2-1.5-1-2.4L35.5,7c-0.3-0.3-1.3-1-2.6-1h-7.7C23.4,6,22,7.4,22,9.1z M24.1,20.9V9.1c0-0.6,0.5-1,1-1h7.7
		c0.6,0,1,0.3,1.1,0.5l3.5,3.5c0.3,0.3,0.4,0.7,0.4,0.9v7.9c0,0.1,0,0.2-0.1,0.3v0.1l0,0c0,0.1-0.1,0.1-0.1,0.1l-5.4,10.2
		c0,0.1-0.2,0.3-0.7,0.3h-6.1l5-8.4c0.2-0.3,0.2-0.7,0-1.1c-0.2-0.3-0.5-0.5-0.9-0.5h-4.5C24.5,21.9,24.1,21.4,24.1,20.9L24.1,20.9z
		 M0,9.1l0,11.8C0,22.6,1.4,24,3.1,24h2.7l-4.7,7.5c-0.5,0.8-0.3,1.4-0.1,1.7C1.3,33.7,1.9,34,2.6,34h0.1h7c1.5,0,2.3-0.9,2.6-1.4
		l5.3-10.2c0.1-0.1,0.1-0.2,0.2-0.3l0.1-0.1c0.1-0.1,0.1-0.2,0.1-0.3c0.1-0.3,0.2-0.6,0.2-0.9v-8c0-0.6-0.2-1.5-1-2.4L13.5,7
		c-0.3-0.3-1.3-1-2.6-1H3.1C1.4,6,0,7.4,0,9.1z M2.1,20.9V9.1c0-0.6,0.5-1,1-1h7.7c0.6,0,1,0.3,1.1,0.5l3.5,3.5
		c0.3,0.3,0.4,0.7,0.4,0.9v7.9c0,0.1,0,0.2-0.1,0.3v0.1c0,0.1-0.1,0.1-0.1,0.1l-5.4,10.2c0,0.1-0.2,0.3-0.7,0.3H3.5l5-8.4
		c0.2-0.3,0.2-0.7,0-1.1c-0.2-0.3-0.5-0.5-0.9-0.5H3.1C2.6,21.9,2.1,21.4,2.1,20.9L2.1,20.9z"/>
</g>
</svg>
