<?xml version="1.0" encoding="utf-8"?>
<!-- Generator: Adobe Illustrator 19.1.0, SVG Export Plug-In . SVG Version: 6.00 Build 0)  -->
<svg version="1.1" id="Слой_1" xmlns="http://www.w3.org/2000/svg" xmlns:xlink="http://www.w3.org/1999/xlink" x="0px" y="0px"
	 viewBox="0 0 30 26" style="enable-background:new 0 0 30 26;" xml:space="preserve">
<style type="text/css">
	.st0{fill:#565656;}
</style>
<g>
	<path class="st0" d="M26.5,0.8h-23C1.6,0.8,0,2.4,0,4.3v13.8c0,1.9,1.6,3.5,3.5,3.5h2.4L8,24.5c0.1,0.2,0.6,0.7,1.3,0.7
		c0.3,0,0.8-0.1,1.3-0.8l2.1-2.8h13.7c1.9,0,3.5-1.6,3.5-3.5V4.3C30,2.4,28.4,0.8,26.5,0.8z M28.7,18.1c0,1.2-1,2.1-2.1,2.1h-14
		c-0.2,0-0.4,0.1-0.5,0.3l-2.3,3.1c-0.1,0.2-0.2,0.2-0.2,0.2s-0.2-0.1-0.3-0.2L7,20.5c-0.1-0.2-0.3-0.3-0.5-0.3H3.7
		c-1.2,0-2.1-1-2.1-2.1V4.3c0-1.2,1-2.1,2.1-2.1h23c1.2,0,2.1,1,2.1,2.1L28.7,18.1L28.7,18.1z M24.4,11.4c0,0.4-0.3,0.7-0.7,0.7H6.1
		c-0.4,0-0.7-0.3-0.7-0.7s0.3-0.7,0.7-0.7h17.7C24.2,10.7,24.4,11,24.4,11.4z M24.4,15.4c0,0.4-0.3,0.7-0.7,0.7H6.1
		c-0.4,0-0.7-0.3-0.7-0.7s0.3-0.7,0.7-0.7h17.7C24.2,14.7,24.4,15,24.4,15.4z M5.4,7.4c0-0.4,0.3-0.7,0.7-0.7h10.6
		c0.4,0,0.7,0.3,0.7,0.7s-0.3,0.7-0.7,0.7H6.1C5.8,8.1,5.4,7.7,5.4,7.4z"/>
</g>
</svg>
