<?xml version="1.0" encoding="utf-8"?>
<!-- Generator: Adobe Illustrator 19.1.0, SVG Export Plug-In . SVG Version: 6.00 Build 0)  -->
<svg version="1.1" id="Слой_1" xmlns="http://www.w3.org/2000/svg" xmlns:xlink="http://www.w3.org/1999/xlink" x="0px" y="0px"
	 viewBox="0 0 40 40" style="enable-background:new 0 0 40 40;" xml:space="preserve">
<style type="text/css">
	.st0{fill:#ffffff;}
</style>
<g>
	<path class="st0" d="M20.8,32.6L20.8,32.6h-2c-0.1,0-0.3-0.1-0.3-0.3v-6c0-0.2-0.1-0.5-0.3-0.7c-0.5-0.4-0.8-1.1-0.8-1.8
		c0-1.3,1.1-2.4,2.4-2.4c1,0,1.8,0.6,2.2,1.4h1.8c-0.4-1.8-2-3.1-4-3.1c-2.3,0-4.2,1.9-4.2,4.2c0,1.1,0.4,2.1,1.1,2.8v5.6
		c0,1.1,0.9,2.1,2.1,2.1h2c1.1,0,1.9-0.8,2-1.9L20.8,32.6L20.8,32.6z"/>
	<path class="st0" d="M33.1,14.3v-1.2C33.1,5.8,27.2,0,20,0S6.9,5.9,6.9,13.1v1.1c-1,0.2-1.8,1.1-1.8,2.2v17.3
		c0,3.4,2.8,6.3,6.3,6.3h17.2c3.4,0,6.3-2.8,6.3-6.3V16.4C34.9,15.4,34.1,14.5,33.1,14.3z M20,1.8c6.3,0,11.4,5.1,11.4,11.4v1.1
		h-3.2v-1.2c0-4.4-3.6-8.1-8.1-8.1C15.7,5,12,8.6,12,13.1v1.2H8.7v-1.1C8.7,6.8,13.7,1.8,20,1.8z M26.4,13v1.2H13.8V13
		c0-3.5,2.8-6.3,6.3-6.3C23.6,6.7,26.4,9.5,26.4,13z M28.6,38.3H11.4c-2.5,0-4.5-2-4.5-4.5V16.5c0-0.3,0.2-0.5,0.5-0.5h0.3h5.1h14.4
		h5h0.3c0.3,0,0.5,0.2,0.5,0.5v17.3l0,0C33.1,36.3,31.1,38.3,28.6,38.3z"/>
</g>
</svg>
