<?xml version="1.0" encoding="utf-8"?>
<!-- Generator: Adobe Illustrator 19.1.0, SVG Export Plug-In . SVG Version: 6.00 Build 0)  -->
<svg version="1.1" id="Слой_1" xmlns="http://www.w3.org/2000/svg" xmlns:xlink="http://www.w3.org/1999/xlink" x="0px" y="0px"
	 viewBox="0 0 40 40" xml:space="preserve" width="40" height="40">
<style type="text/css">
	.st0{fill:#B7D74C;opacity:0.5;}
</style>
<g>
	<path class="st0" d="M30.9,14.6L30.9,14.6c0-0.1,0-0.1-0.1-0.2l0,0c0,0-0.1-0.1-0.1-0.2l0,0l-9.5-9.4l0,0l0,0l0,0
		c0,0-0.1-0.1-0.2-0.1l0,0c0,0-0.1,0-0.2-0.1l0,0h-0.1H7.3C6.1,4.7,5,5.7,5,7v30.7C5,38.9,6,40,7.3,40h21.5c1.2,0,2.3-1,2.3-2.3
		V14.9C30.9,14.7,30.9,14.6,30.9,14.6z M28.3,13.9h-6.8V7.3L28.3,13.9z M29.5,37.5c0,0.4-0.3,0.7-0.7,0.7H7.3
		c-0.4,0-0.7-0.3-0.7-0.7V6.9c0-0.4,0.3-0.7,0.7-0.7H20v8.6c0,0.4,0.3,0.8,0.8,0.8h8.7V37.5L29.5,37.5L29.5,37.5z"/>
	<path class="st0" d="M30.8,2.3H9c-1.2,0-2.1,0.9-2.1,2.1v0.2h1.6V4.5C8.5,4.2,8.7,4,9,4l0,0h21.9c0.3,0,0.5,0.2,0.5,0.5v31
		c0,0.3-0.2,0.5-0.4,0.5v1.6c1.1,0,2-1,2-2.1v-31C32.9,3.3,32,2.3,30.8,2.3z"/>
	<path class="st0" d="M32.9,0H11C9.9,0,9,0.9,9,2.1v0.3h1.6V2.1c0-0.3,0.2-0.5,0.5-0.5l0,0h21.9c0.3,0,0.5,0.2,0.5,0.5v31
		c0,0.3-0.2,0.5-0.5,0.5v1.6c1.1,0,2.1-1,2.1-2.1v-31C35,0.9,34,0,32.9,0z"/>
</g>
</svg>
