<?xml version="1.0" encoding="utf-8"?>
<!-- Generator: Adobe Illustrator 19.1.0, SVG Export Plug-In . SVG Version: 6.00 Build 0)  -->
<svg version="1.1" id="Слой_1" xmlns="http://www.w3.org/2000/svg" xmlns:xlink="http://www.w3.org/1999/xlink" x="0px" y="0px"
	 viewBox="0 0 40 40" style="enable-background:new 0 0 40 40;" xml:space="preserve">
<style type="text/css">
	.st0{fill:#F0F0EF;}
</style>
<path class="st0" d="M20,13.6c-3.5,0-6.4,2.9-6.4,6.4s2.9,6.4,6.4,6.4s6.4-2.9,6.4-6.4S23.4,13.6,20,13.6z M20,25c-2.8,0-5-2.2-5-5
	s2.2-5,5-5s5,2.2,5,5S22.7,25,20,25z"/>
<path class="st0" d="M20,2.6C10.3,2.6,2.5,10.3,2.5,20S10.3,37.4,20,37.4S37.4,29.7,37.4,20S29.6,2.6,20,2.6z M20,36
	c-8.8,0-16-7.3-16-16S11.2,4,20,4s16,7.3,16,16S28.7,36,20,36z"/>
<path class="st0" d="M11,20.7H0.5c-0.2,0-0.5-0.3-0.5-0.6v-0.2c0-0.3,0.2-0.6,0.5-0.6H11c0.2,0,0.5,0.3,0.5,0.6v0.2
	C11.5,20.4,11.3,20.7,11,20.7z"/>
<path class="st0" d="M39.4,20.7H28.9c-0.2,0-0.5-0.3-0.5-0.6v-0.2c0-0.3,0.2-0.6,0.5-0.6h10.5c0.2,0,0.5,0.3,0.5,0.6v0.2
	C39.9,20.4,39.7,20.7,39.4,20.7z"/>
<path class="st0" d="M20.6,0.6V11c0,0.2-0.3,0.5-0.6,0.5h-0.2c-0.3,0-0.6-0.2-0.6-0.5V0.5c0-0.2,0.3-0.5,0.6-0.5H20
	C20.3,0.1,20.6,0.3,20.6,0.6z"/>
<g>
	<path class="st0" d="M20.6,29v10.5c0,0.2-0.3,0.5-0.6,0.5h-0.2c-0.3,0-0.6-0.2-0.6-0.5V29c0-0.2,0.3-0.5,0.6-0.5H20
		C20.3,28.5,20.6,28.7,20.6,29z"/>
</g>
<path class="st0" d="M20,10.6c-5.2,0-9.4,4.2-9.4,9.4s4.2,9.4,9.4,9.4s9.4-4.2,9.4-9.4S25.1,10.6,20,10.6z M20,28c-4.4,0-8-3.6-8-8
	s3.6-8,8-8s8,3.6,8,8S24.3,28,20,28z"/>
</svg>
