<?xml version="1.0" encoding="utf-8"?>
<!-- Generator: Adobe Illustrator 19.1.0, SVG Export Plug-In . SVG Version: 6.00 Build 0)  -->
<svg version="1.1" id="Слой_1" xmlns="http://www.w3.org/2000/svg" xmlns:xlink="http://www.w3.org/1999/xlink" x="0px" y="0px"
	 viewBox="0 0 24 24" style="enable-background:new 0 0 24 24;" xml:space="preserve">
<style type="text/css">
	.st0{fill:#FFFFFF;}
</style>
<path class="st0" d="M23.9,11.9C23.9,5.4,18.6,0,12,0S0.1,5.4,0.1,11.9c0,3.6,1.6,6.9,4.2,9.1c0,0,0,0,0.1,0.1C6.5,23,9.2,24,12,24
	s5.5-1,7.6-2.7c0.1,0,0.1-0.1,0.3-0.1C22.3,18.6,23.9,15.5,23.9,11.9z M1.1,11.9C1.1,6,6,1,12,1S22.9,6,22.9,11.9c0,3-1.2,5.5-3,7.5
	c-0.3-1.5-1.2-3.9-4-5.5c0.6-0.7,1-1.8,1-3c0-2.7-2.1-4.8-4.8-4.8s-4.8,2.1-4.8,4.8c0,1,0.4,2.1,1,3c-2.8,1.6-3.7,4-4,5.5
	C2.3,17.4,1.1,14.9,1.1,11.9z M8.4,11c0-1.9,1.6-3.6,3.6-3.6s3.6,1.6,3.6,3.6s-1.6,3.6-3.6,3.6C10.1,14.8,8.4,13.1,8.4,11z
	 M5.3,20.4c0-0.9,0.6-3.9,3.9-5.5c0.9,0.6,1.8,1,3,1c1,0,2.1-0.4,3-1c3.3,1.6,3.7,4.6,3.9,5.5c-1.8,1.5-4.2,2.4-6.9,2.4
	C9.5,22.8,7.1,21.9,5.3,20.4z"/>
</svg>
