<?xml version="1.0" encoding="utf-8"?>
<!-- Generator: Adobe Illustrator 19.1.0, SVG Export Plug-In . SVG Version: 6.00 Build 0)  -->
<svg version="1.1" id="Слой_1" xmlns="http://www.w3.org/2000/svg" xmlns:xlink="http://www.w3.org/1999/xlink" x="0px" y="0px"
	 viewBox="0 0 50 50" style="enable-background:new 0 0 50 50;" xml:space="preserve">
<style type="text/css">
	.st0{fill:#FFFFFF;}
</style>
<path class="st0" d="M49.8,24.8C49.8,11.2,38.7,0,25,0S0.2,11.2,0.2,24.8c0,7.5,3.4,14.3,8.7,18.9c0,0,0,0,0.3,0.3
	C13.5,47.8,19.1,50,25,50s11.5-2.2,15.8-5.6c0.3,0,0.3-0.3,0.6-0.3C46.4,38.8,49.8,32.3,49.8,24.8z M2.3,24.8
	C2.3,12.4,12.6,2.2,25,2.2s22.7,10.2,22.7,22.7c0,6.2-2.5,11.5-6.2,15.5c-0.6-3.1-2.5-8.1-8.4-11.5c1.2-1.6,2.2-3.7,2.2-6.2
	c0-5.6-4.3-9.9-9.9-9.9s-9.9,4.3-9.9,9.9c0,2.2,0.9,4.3,2.2,6.2c-5.9,3.4-7.8,8.4-8.4,11.5C4.8,36.3,2.3,31.1,2.3,24.8z M17.5,23
	c0-4,3.4-7.5,7.5-7.5s7.5,3.4,7.5,7.5S29,30.4,25,30.4C21,30.7,17.5,27.3,17.5,23z M11,42.5c0-1.9,1.2-8.1,8.1-11.5
	c1.9,1.2,3.7,2.2,6.2,2.2c2.2,0,4.3-0.9,6.2-2.2c6.8,3.4,7.8,9.6,8.1,11.5c-3.7,3.1-8.7,5-14.3,5C19.7,47.5,14.8,45.7,11,42.5z"/>
</svg>
