<?xml version="1.0" encoding="utf-8"?>
<!-- Generator: Adobe Illustrator 19.1.0, SVG Export Plug-In . SVG Version: 6.00 Build 0)  -->
<svg version="1.1" id="Слой_1" xmlns="http://www.w3.org/2000/svg" xmlns:xlink="http://www.w3.org/1999/xlink" x="0px" y="0px"
	 viewBox="0 0 40 40" style="enable-background:new 0 0 40 40;" xml:space="preserve">
<style type="text/css">
	.st0{fill:#72B15F;}
</style>
<g>
	<path class="st0" d="M34.8,11.4L34.8,11.4c0-0.1,0-0.1-0.1-0.2c0,0,0,0,0,0c0,0-0.1-0.1-0.1-0.2l0,0L23.8,0.3l0,0l0,0l0,0
		c0,0-0.1-0.1-0.2-0.1c0,0,0,0,0,0c0,0-0.1,0-0.2-0.1l0,0c0,0-0.1,0-0.1,0H7.8C6.4,0,5.2,1.2,5.2,2.6v34.9c0,1.4,1.2,2.6,2.6,2.6
		h24.4c1.4,0,2.6-1.2,2.6-2.6V11.6C34.8,11.5,34.8,11.5,34.8,11.4z M31.7,10.7h-7.6V3.1L31.7,10.7z M33,37.4c0,0.4-0.3,0.8-0.8,0.8
		H7.8c-0.4,0-0.8-0.3-0.8-0.8V2.6c0-0.4,0.3-0.8,0.8-0.8h14.5v9.7c0,0.5,0.4,0.9,0.9,0.9h9.8L33,37.4L33,37.4L33,37.4z M28.9,28.1
		c0,0.5-0.4,0.9-0.9,0.9H11.9c-0.5,0-0.9-0.4-0.9-0.9c0-0.5,0.4-0.9,0.9-0.9H28C28.5,27.2,28.9,27.6,28.9,28.1z M28.9,33.4
		c0,0.5-0.4,0.9-0.9,0.9H11.9c-0.5,0-0.9-0.4-0.9-0.9s0.4-0.9,0.9-0.9H28C28.5,32.6,28.9,32.9,28.9,33.4z M28.9,22.8
		c0,0.5-0.4,0.9-0.9,0.9H11.9c-0.5,0-0.9-0.4-0.9-0.9s0.4-0.9,0.9-0.9H28C28.5,21.9,28.9,22.3,28.9,22.8z M11.9,16.6H28
		c0.5,0,0.9,0.4,0.9,0.9s-0.4,0.9-0.9,0.9H11.9c-0.5,0-0.9-0.4-0.9-0.9C11,17,11.4,16.6,11.9,16.6z M11,12.2c0-0.5,0.4-0.9,0.9-0.9
		h5.6c0.5,0,0.9,0.4,0.9,0.9c0,0.5-0.4,0.9-0.9,0.9h-5.5C11.4,13.1,11,12.7,11,12.2z M11,6.9C11,6.4,11.3,6,11.8,6h5.6
		c0.5,0,0.9,0.4,0.9,0.9c0,0.5-0.4,0.9-0.9,0.9h-5.5C11.4,7.8,11,7.4,11,6.9z"/>
</g>
</svg>
