<?xml version="1.0" encoding="utf-8"?>
<!-- Generator: Adobe Illustrator 19.1.0, SVG Export Plug-In . SVG Version: 6.00 Build 0)  -->
<svg version="1.1" id="Слой_1" xmlns="http://www.w3.org/2000/svg" xmlns:xlink="http://www.w3.org/1999/xlink" x="0px" y="0px"
	 viewBox="0 0 10 16" style="enable-background:new 0 0 10 16;" xml:space="preserve">
<style type="text/css">
	.st0{fill:#E0E0E0;}
</style>
<path class="st0" d="M8.9,0H1.2C0.7,0,0.3,0.4,0.3,0.9v14.2c0,0.5,0.4,0.9,0.9,0.9h7.6c0.5,0,0.9-0.4,0.9-0.9V0.8
	C9.8,0.3,9.4,0,8.9,0z M1.3,0.7h7.6C9,0.7,9,0.8,9,0.8V2H1.1V0.8C1.1,0.8,1.2,0.7,1.3,0.7z M9.1,2.8v9.9H1.3V2.8H9.1z M8.9,15.2H1.2
	c-0.1,0-0.1-0.1-0.1-0.1v-1.6H9L8.9,15.2C9.1,15.1,9,15.2,8.9,15.2z M5.5,14.3c0,0.2-0.2,0.4-0.4,0.4c-0.2,0-0.4-0.2-0.4-0.4
	c0-0.2,0.2-0.4,0.4-0.4C5.3,13.9,5.5,14.1,5.5,14.3z"/>
</svg>
