<?xml version="1.0" encoding="utf-8"?>
<!-- Generator: Adobe Illustrator 19.1.0, SVG Export Plug-In . SVG Version: 6.00 Build 0)  -->
<svg version="1.1" id="Слой_1" xmlns="http://www.w3.org/2000/svg" xmlns:xlink="http://www.w3.org/1999/xlink" x="0px" y="0px"
	 viewBox="0 0 40 40" style="enable-background:new 0 0 40 40;" xml:space="preserve">
<style type="text/css">
	.st0{fill:#E0E0E0;}
</style>
<path class="st0" d="M29,18.5l-9.6-9.3c-0.2-0.1-0.5-0.5-1.1-0.5c-0.5,0-1,0.3-1.2,1.2c0,0.1,0,0.1,0,0.2v4.3H1.9l-0.5,1.9h16.7
	c0.5,0,0.9-0.4,0.9-0.9v-3.7l8.6,8.4c0.1,0.1,0.1,0.1,0.1,0.1c0,0,0,0.1-0.1,0.1l-8.6,8.3v-3.7c0-0.5-0.5-0.9-1-0.9H1.4L2,25.8h15.1
	v4.1c0,0.1,0,0.1,0,0.1c0.1,0.9,0.7,1.3,1.2,1.3c0.6,0,0.9-0.4,1.1-0.5l9.6-9.3c0.6-0.5,0.7-1.1,0.7-1.5
	C29.7,19.2,29.2,18.7,29,18.5z"/>
<path class="st0" d="M20,0C9,0,0,9,0,20c0,11,9,20,20,20c11,0,20-9,20-20C40,9,31,0,20,0z M20,38.5c-10.3,0-18.6-8.3-18.6-18.6
	C1.4,9.7,9.7,1.3,20,1.3c10.3,0,18.6,8.3,18.6,18.6C38.6,30.2,30.3,38.5,20,38.5z"/>
</svg>
