<?xml version="1.0" encoding="utf-8"?>
<!-- Generator: Adobe Illustrator 19.1.0, SVG Export Plug-In . SVG Version: 6.00 Build 0)  -->
<svg version="1.1" id="Слой_1" xmlns="http://www.w3.org/2000/svg" xmlns:xlink="http://www.w3.org/1999/xlink" x="0px" y="0px"
	 viewBox="0 0 40 40" style="enable-background:new 0 0 40 40;" xml:space="preserve">
<style type="text/css">
	.st0{fill:#B7D74C;opacity:0.5;}
</style>
<g>
	<path class="st0" d="M20.8,2.4V1.6h4.4c0.3,0,0.6-0.2,0.6-0.8c0-0.5-0.3-0.8-0.6-0.8H14.9c-0.3,0-0.6,0.2-0.6,0.8
		c0,0.5,0.3,0.8,0.6,0.8h4.3v0.8c-10,0.4-18,8.6-18,18.8C1.2,31.6,9.7,40,20,40c10.4,0,18.8-8.5,18.8-18.8
		C38.8,11,30.7,2.8,20.8,2.4z M20,38.5c-9.6,0-17.3-7.8-17.3-17.3c0-9.6,7.8-17.3,17.3-17.3c9.6,0,17.3,7.8,17.3,17.3
		S29.6,38.5,20,38.5z"/>
	<path class="st0" d="M20,7.7c-0.4,0-0.8,0.3-0.8,0.7v12H8.5c-0.4,0-0.7,0.4-0.7,0.8S8.1,22,8.5,22H20c0.4,0,0.8-0.4,0.8-0.8V8.4
		C20.8,8,20.4,7.7,20,7.7z"/>
	<path class="st0" d="M18.5,3"/>
</g>
</svg>
