<?xml version="1.0" encoding="utf-8"?>
<!-- Generator: Adobe Illustrator 19.1.0, SVG Export Plug-In . SVG Version: 6.00 Build 0)  -->
<svg version="1.1" id="Слой_1" xmlns="http://www.w3.org/2000/svg" xmlns:xlink="http://www.w3.org/1999/xlink" x="0px" y="0px"
	 viewBox="0 0 40 45" style="enable-background:new 0 0 40 45;" xml:space="preserve">
<style type="text/css">
	.st0{fill:#E0E0E0;}
	.st1{fill:#FFFFFF;}
	.st2{fill:none;stroke:#E0E0E0;stroke-width:1.5;stroke-linecap:round;stroke-linejoin:round;stroke-miterlimit:10;}
</style>
<path class="st0" d="M40,20C40,9,31,0,20,0S0,9,0,20c0,6,2.8,11.5,7,15.2c0,0,0,0,0.3,0.2c3.5,3,8,4.8,12.8,4.8s9.3-1.8,12.8-4.5
	c0.3,0,0.3-0.2,0.5-0.2C37.2,31.1,40,25.9,40,20z M1.7,20C1.7,10,10,1.8,20,1.8S38.3,10,38.3,20c0,5-2,9.3-5,12.5
	c-0.5-2.5-2-6.5-6.8-9.3c1-1.3,1.8-3,1.8-5c0-4.5-3.5-8-8-8s-8,3.5-8,8c0,1.8,0.8,3.5,1.8,5c-4.8,2.7-6.3,6.8-6.8,9.3
	C3.7,29.1,1.7,24.9,1.7,20z M14,18.5c0-3.2,2.8-6,6-6s6,2.7,6,6s-2.8,6-6,6C16.7,24.6,14,22,14,18.5z M8.7,34.1c0-1.5,1-6.5,6.5-9.3
	c1.5,1,3,1.8,5,1.8c1.8,0,3.5-0.7,5-1.8c5.5,2.7,6.3,7.7,6.5,9.3c-3,2.5-7,4-11.5,4S11.7,36.6,8.7,34.1z"/>
<path class="st1" d="M22.2,44.3c-1.5,0-2.8-1.2-2.8-2.8v-8c0-1.5,1.2-2.8,2.8-2.8h14.3c1.5,0,2.8,1.2,2.8,2.8v8
	c0,1.5-1.2,2.8-2.8,2.8H22.2z"/>
<path class="st0" d="M36.5,31.5c1.1,0,2,0.9,2,2v8c0,1.1-0.9,2-2,2H22.2c-1.1,0-2-0.9-2-2v-8c0-1.1,0.9-2,2-2H36.5 M36.5,30H22.2
	c-1.9,0-3.5,1.6-3.5,3.5v8c0,1.9,1.6,3.5,3.5,3.5h14.3c1.9,0,3.5-1.6,3.5-3.5v-8C40,31.6,38.4,30,36.5,30L36.5,30z"/>
<line class="st2" x1="23.4" y1="40.6" x2="35.4" y2="40.6"/>
<line class="st2" x1="23.4" y1="37.7" x2="35.4" y2="37.7"/>
<line class="st2" x1="23.4" y1="34.8" x2="29.4" y2="34.8"/>
</svg>
