<?xml version="1.0" encoding="utf-8"?>
<!-- Generator: Adobe Illustrator 19.1.0, SVG Export Plug-In . SVG Version: 6.00 Build 0)  -->
<svg version="1.1" id="Слой_1" xmlns="http://www.w3.org/2000/svg" xmlns:xlink="http://www.w3.org/1999/xlink" x="0px" y="0px"
	 viewBox="0 0 40 40" xml:space="preserve">
<style type="text/css">
	.st0{fill:#FFFFFF;}
</style>
<path class="st0" d="M29.9,22.1L29.9,22.1C29.9,22.1,29.9,22.1,29.9,22.1z"/>
<path class="st0" d="M38.7,32.5L30.2,24c3.3-6.1,2.4-13.9-2.8-19C21.1-1.3,11-1.3,4.7,5c-6.3,6.3-6.3,16.4,0,22.7
	c5.3,5.3,13.5,6.1,19.7,2.4l8.5,8.5c0.8,0.8,1.9,1.2,3,1.2c1.2,0,2.2-0.4,2.9-1.3C40.4,36.9,40.4,34.2,38.7,32.5z M5.7,26.7
	C0,21,0,11.7,5.7,5.9c5.7-5.7,15-5.7,20.8,0s5.7,15,0,20.8C20.7,32.5,11.4,32.5,5.7,26.7z M33.8,37.5l-8.2-8.2
	c0.6-0.5,1.2-1,1.8-1.5c0.8-0.8,1.5-1.6,2-2.5l8.3,8.3c0.8,0.8,1.3,2.7,0,4C36.5,38.8,34.6,38.3,33.8,37.5z"/>
<path class="st0" d="M16.1,4.9C9.7,4.9,4.6,10,4.6,16.4s5.1,11.5,11.5,11.5s11.5-5.1,11.5-11.5S22.4,4.9,16.1,4.9z M16.1,26.6
	c-5.7,0-10.3-4.6-10.3-10.3C5.8,10.6,10.4,6,16.1,6c5.7,0,10.3,4.6,10.3,10.3C26.4,22,21.8,26.6,16.1,26.6z"/>
</svg>
