<?xml version="1.0" encoding="utf-8"?>
<!-- Generator: Adobe Illustrator 19.1.0, SVG Export Plug-In . SVG Version: 6.00 Build 0)  -->
<svg version="1.1" id="Слой_1" xmlns="http://www.w3.org/2000/svg" xmlns:xlink="http://www.w3.org/1999/xlink" x="0px" y="0px"
	 viewBox="0 0 16 16" style="enable-background:new 0 0 16 16;" xml:space="preserve">
<style type="text/css">
	.st0{fill:#72B15F;}
</style>
<path class="st0" d="M12,8.8L12,8.8L12,8.8z"/>
<path class="st0" d="M15.5,13l-3.4-3.4C13.4,7.1,13,4,11,1.9c-2.5-2.6-6.6-2.6-9.1,0s-2.5,6.6,0,9.2c2.1,2.1,5.4,2.5,7.9,1l3.4,3.4
	c0.3,0.3,0.8,0.5,1.2,0.5c0.5,0,0.9-0.2,1.2-0.5C16.2,14.8,16.2,13.7,15.5,13z M2.3,10.7C0,8.4,0,4.6,2.3,2.3c2.3-2.3,6-2.3,8.3,0
	s2.3,6.1,0,8.4C8.3,13,4.6,13,2.3,10.7z M13.5,15.1l-3.3-3.3c0.2-0.2,0.5-0.4,0.7-0.6c0.3-0.3,0.6-0.6,0.8-1l3.3,3.4
	c0.3,0.3,0.5,1.1,0,1.6C14.6,15.6,13.8,15.4,13.5,15.1z"/>
<path class="st0" d="M6.4,1.9c-2.6,0-4.6,2.1-4.6,4.7s2,4.7,4.6,4.7S11,9.1,11,6.5S9,1.9,6.4,1.9z M6.4,10.7c-2.3,0-4.1-1.9-4.1-4.2
	s1.8-4.2,4.1-4.2s4.1,1.9,4.1,4.2S8.7,10.7,6.4,10.7z"/>
</svg>
