<svg xmlns="http://www.w3.org/2000/svg" xmlns:xlink="http://www.w3.org/1999/xlink" width="1906" height="1664" viewBox="0 0 1906 1664"><svg id="agreement-40_40" viewBox="0 0 40 40" width="40" height="40" x="0" y="0"><style>.st1{opacity:0.5;fill:#B7D74C;}</style><path class="st1" d="M402.9 427.4c0-.5-.5-.9-1.2-.9h-14.3c-.7 0-1.2.4-1.2.9s.5.9 1.2.9h14.2c.7 0 1.3-.4 1.3-.9zM402.9 422.4c0-.5-.5-.9-1.2-.9h-14.3c-.7 0-1.2.4-1.2.9s.5.9 1.2.9h14.2c.7 0 1.3-.4 1.3-.9zM32.5 20.6V2.4c0-1.3-1.1-2.4-2.4-2.4H7.4C6.1 0 5 1.1 5 2.4v32.4c0 1.3 1.1 2.4 2.4 2.4h16.3v1.6c.1.8.7 1.2 1.2 1.2s.9-.3 1.1-.5l2.3-2 2.4 2.1c.3.2.6.3.9.3.2 0 1.2-.1 1.2-1.6v-7.1c1.4-1.3 2.4-3.1 2.4-5.2-.1-2.2-1.1-4.1-2.7-5.4zm-8.9 14.8l-16.5-.1c-.4 0-.6-.3-.6-.6V2.5c0-.4.3-.6.6-.6h22.6c.4 0 .6.3.6.6v17c-.7-.2-1.4-.3-2.1-.3-3.8 0-6.8 3.1-6.8 6.8 0 .8.1 1.5.4 2.2.1.2.1.4.2.6l.3.6c.1.2.1.3.2.4l.1.1c.1.1.2.1.2.2 0 0-.2 0 .8.9v4.4zm5.8-.2c-.2-.2-.4-.2-.6-.2-.2 0-.5.1-.6.2L26 37.1v-4.7c.7.3 1.5.4 2.3.4 1 0 1.9-.2 2.7-.6l.6 4.8-2.2-1.8zM28.3 31c-2.8 0-5-2.2-5-5s2.2-5 5-5 5 2.2 5 5-2.2 5-5 5z"/></svg>
<svg id="arrowsmall-blue_20-12" viewBox="0 0 20 12" width="20" height="12" x="40" y="40"><style>.st0{fill:#5FB1DB;}</style><path class="st0" d="M9 11.3L.4 2.7c-.5-.5-.5-1.4 0-2 .5-.5 1.4-.5 2 0L10 8.3 17.6.7c.5-.5 1.4-.5 2 0 .5.5.5 1.4 0 2L11 11.3c-.3.3-.6.4-1 .4s-.6 0-1-.4z"/></svg>
<svg id="arrowsmall-green_10-16" viewBox="0 0 10 16" width="10" height="16" x="60" y="52"><style>.st0{fill:#BCA480;}</style><path class="st0" d="M9.2 8.8l-6.9 6.9c-.4.4-1.1.4-1.6 0-.4-.4-.4-1.1 0-1.6L6.8 8 .7 1.9C.3 1.5.3.8.7.3c.4-.4 1.1-.4 1.6 0l6.9 6.9c.2.2.3.5.3.8.1.3 0 .6-.3.8z"/></svg>
<svg id="arrowsmall-green_20-12" viewBox="0 0 20 12" width="20" height="12" x="70" y="68"><style>.st0{fill:#BCA480;}</style><path class="st0" d="M9 11.3L.4 2.7c-.5-.5-.5-1.4 0-2 .5-.5 1.4-.5 2 0L10 8.3 17.6.7c.5-.5 1.4-.5 2 0 .5.5.5 1.4 0 2L11 11.3c-.3.3-.6.4-1 .4s-.6 0-1-.4z"/></svg>
<svg id="arrowsmall-grey_20-12" viewBox="0 0 20 12" width="20" height="12" x="90" y="80"><style>.st0{fill:#565656; opacity:.75;}</style><path class="st0" d="M9 11.3L.4 2.7c-.5-.5-.5-1.4 0-2 .5-.5 1.4-.5 2 0L10 8.3 17.6.7c.5-.5 1.4-.5 2 0 .5.5.5 1.4 0 2L11 11.3c-.3.3-.6.4-1 .4s-.6 0-1-.4z"/></svg>
<svg id="arrowsmall-lightgrey_20-12" viewBox="0 0 20 12" width="20" height="12" x="110" y="92"><style>.st0{fill:#E0E0E0;}</style><path class="st0" d="M9 11.3L.4 2.7c-.5-.5-.5-1.4 0-2 .5-.5 1.4-.5 2 0L10 8.3 17.6.7c.5-.5 1.4-.5 2 0 .5.5.5 1.4 0 2L11 11.3c-.3.3-.6.4-1 .4s-.6 0-1-.4z"/></svg>
<svg id="arrowsmall-white_10-16" viewBox="0 0 10 16" width="10" height="16" x="130" y="104"><style>.st0{fill:#FFFFFF;}</style><path class="st0" d="M9.2 8.8l-6.9 6.9c-.4.4-1.1.4-1.6 0-.4-.4-.4-1.1 0-1.6L6.8 8 .7 1.9C.3 1.5.3.8.7.3c.4-.4 1.1-.4 1.6 0l6.9 6.9c.2.2.3.5.3.8.1.3 0 .6-.3.8z"/></svg>
<svg id="arrowsmall_26-26" viewBox="0 0 26 26" width="26" height="26" x="140" y="120"><style>.st0{fill:#FFFFFF;}</style><path class="st0" d="M17.2 13.8l-6.9 6.9c-.4.4-1.1.4-1.6 0-.4-.4-.4-1.1 0-1.6l6.1-6.1-6.1-6.1c-.4-.4-.4-1.1 0-1.6.4-.4 1.1-.4 1.6 0l6.9 6.9c.2.2.3.5.3.8.1.3 0 .6-.3.8z"/></svg>
<svg id="badges_40-40" viewBox="0 0 40 40" width="40" height="40" x="166" y="146"><style>.st0{fill:#B7D74C;opacity:0.5;}</style><path class="st0" d="M34.1 33.2L29.8 25c2.8-2.6 4.5-6.3 4.5-10.5C34.3 6.6 27.8.1 19.9.1S5.5 6.6 5.5 14.4c0 4.4 2 8.4 5.2 11l-4 7.6c-.4.8-.5 1.5-.1 2 .3.5.9.8 1.5.8h.2l4.2-1 1.5 3.7c.5 1.2 1.2 1.4 1.6 1.4.9 0 1.5-.9 1.7-1.3v-.1l3-5.8 3 5.8v.1c.2.4.8 1.3 1.7 1.3.5 0 1.2-.3 1.6-1.4l1.5-3.7 4.2 1h.2c.7 0 1.2-.3 1.5-.8.6-.4.6-1.1.1-1.8zM7.4 14.4C7.4 7.6 13 1.9 19.9 1.9s12.5 5.6 12.5 12.5c0 3.8-1.7 7.2-4.4 9.6-1.7 1.5-3.7 2.4-5.9 2.8H21.8c-.4.1-.7.1-1 .1s-.6.1-1 .1c-.2 0-.5 0-.7-.1-.1 0-.3 0-.4-.1h-.1-.1c-.3-.1-.6-.1-.9-.1h-.1c-.3-.1-.6-.1-.9-.1h-.1c-.3-.1-.6-.1-.9-.3h-.1c-1.3-.4-2.4-1.1-3.5-1.9 0 0-.1 0-.1-.1-2.6-2-4.5-5.7-4.5-9.9zm13 14.4zm-4.6 9L14 33.5c-.1-.4-.5-.6-.9-.6h-.2l-4.6 1 3.8-7.3c1.1.7 2.3 1.3 3.6 1.7.1 0 .1.1.1.1.3.1.5.1.8.2.1 0 .1.1.1.1.3.1.6.1.9.1.1 0 .1 0 .2.1.1 0 .1 0 .2.1l1.1 2.1-3.3 6.7zm12.1-4.9c-.5-.1-.9.1-1.1.6L25 37.8l-3.6-6.9 1.2-2.3c2.1-.4 4-1.3 5.7-2.5l4 7.8-4.4-1z"/></svg>
<svg id="bag_30-30" viewBox="0 0 30 30" width="30" height="30" x="206" y="186"><style>.st0{fill:#565656;}</style><path class="st0" d="M27.2 7.5h-6.8V4.9c0-1-.8-1.9-1.9-1.9h-7.1c-1 0-1.9.8-1.9 1.9v2.6H2.8C1.3 7.5 0 8.7 0 10.2v14C0 25.7 1.2 27 2.8 27h24.4c1.5 0 2.8-1.2 2.8-2.8v-14c-.1-1.5-1.3-2.7-2.8-2.7zM4.6 25.4H2.9c-.7 0-1.4-.6-1.4-1.4V10.1c0-.7.6-1.4 1.4-1.4h1.7v16.7zm3.4 0H5.9V8.8H8v16.6zm3-20.5c0-.3.2-.5.5-.5h7.1c.3 0 .5.2.5.5v2.6H11V4.9zm9.6 20.5H9.3V8.8h11.5l-.2 16.6zm3.5 0H22V8.8h2.1v16.6zm4.5-1.4c0 .7-.6 1.4-1.4 1.4h-1.7V8.8h1.7c.7 0 1.4.6 1.4 1.4V24z"/></svg>
<svg id="bag_40-40" viewBox="0 0 40 40" width="40" height="40" x="236" y="216"><style>.st0{fill:#565656;}</style><path class="st0" d="M36.3 10h-9.1V6.5c0-1.4-1.1-2.5-2.5-2.5h-9.5c-1.4 0-2.5 1.1-2.5 2.5V10h-9c-2 0-3.7 1.6-3.7 3.7v18.7c0 2 1.6 3.7 3.7 3.7h32.7c2 0 3.7-1.6 3.7-3.7V13.7c-.1-2.1-1.8-3.7-3.8-3.7zM6.2 34H3.9c-1 0-1.9-.8-1.9-1.9V13.5c0-1 .8-1.9 1.9-1.9h2.3V34zm4.5 0H7.9V11.8h2.8V34zm4-27.5c0-.4.3-.7.7-.7h9.5c.4 0 .7.3.7.7V10H14.7V6.5zM27.6 34H12.4V11.8h15.3V34h-.1zm4.6 0h-2.8V11.8h2.8V34zm6-1.9c0 1-.8 1.9-1.9 1.9H34V11.8h2.3c1 0 1.9.8 1.9 1.9v18.4z"/></svg>
<svg id="books_40-40" viewBox="0 0 40 40" width="40" height="40" x="276" y="256"><style>.st0{fill:#ffffff;}</style><path class="st0" d="M33.4 5.3H31V3.2C31 1.7 29.9 1 28.8 1h-5.2V.9c0-.5-.4-.9-.9-.9h-9.5c-.5 0-.9.4-.9.9V1H7.8c-1.6 0-3 1.3-3.1 2.9v32.9c0 1.7 1.4 3.1 3.1 3.1h23.1c2.1-.1 4.3-1.4 4.3-4.8v-28c.1-1-.8-1.8-1.8-1.8zM14.1 1.7h7.6V17.9l-3.3-2.8c-.1 0-.1-.1-.2-.1h-.3-.2-.1c-.1 0-.2.1-.3.1L14 17.6V1.9l.1-.2zM6.5 4.2c0-.1 0-.1 0 0 0-.8.6-1.4 1.3-1.4h4.6v16.7c0 .3.2.7.5.8.3.1.7.1.9-.1l4.1-3.2 4.2 3.5s.1.1.2.1H22.9c.3-.1.5-.5.5-.8v-17h5.2c.4 0 .4.2.4.4v30.1c0 .6-.2.7-.5.8h-21-.2-.1C7 34 7 34 6.9 34c-.1 0-.1 0-.2.1L6.5 4.2zm27 31c0 2.3-1.4 2.9-2.6 3H7.8c-.7 0-1.3-.6-1.3-1.3 0-.2.1-.5.2-.7 0 0 0-.1.1-.1L7 36s.1 0 .2-.1h21.4c1.1 0 2.2-.7 2.2-2.3V7.1h2.5l.2 28.1z"/></svg>
<svg id="checker-white_30-30" viewBox="0 0 30 30" width="30" height="30" x="316" y="296"><style>.st0{fill:#FFFFFF;}</style><path class="st0" d="M27 0H6.2C4.8 0 4.2.6 4 1.2c-.5 1.1.4 2.1.6 2.5l4.9 5.1L7.3 11l-6.1 6.1c-1.8 1.8-1.8 3.3-.1 5.1 1.7 1.7 3.3 3.4 5 5.1l1.5 1.4c.2.2.6.6.9.8.6.4 1.2.6 1.8.6.6 0 1.3-.2 1.8-.6.3-.2.6-.6 1-.9l8.1-8.1 4.9 4.9c.2.2 1 .8 1.8.8.7 0 1.9-.5 1.9-2.4V3c.3-2-1.2-3-2.8-3zm.1 3.1v18.8l-4.7-4.6c-.6-.6-1.5-.6-2.1 0l-.2.2c-.2.2-.3.2-.4.4l-8.5 8.5c-.2.2-.5.4-.7.6-.2-.2-.4-.3-.6-.5l-1.5-1.4c-1.7-1.8-3.4-3.4-5-5.1-.2-.2-.3-.4-.4-.5.1-.1.2-.2.4-.5l6.1-6.1 2.6-2.6c.2-.2.2-.3.4-.4l.2-.2c.6-.6.6-1.5 0-2.1L8 3l19.1.1c0-.1 0-.1 0 0z"/></svg>
<svg id="checker_30-30" viewBox="0 0 30 30" width="30" height="30" x="346" y="326"><style>.st0{fill:#5FB1DB;}</style><path class="st0" d="M27 0H6.2C4.8 0 4.2.6 4 1.2c-.5 1.1.4 2.1.6 2.5l4.9 5.1L7.3 11l-6.1 6.1c-1.8 1.8-1.8 3.3-.1 5.1 1.7 1.7 3.3 3.4 5 5.1l1.5 1.4c.2.2.6.6.9.8.6.4 1.2.6 1.8.6.6 0 1.3-.2 1.8-.6.3-.2.6-.6 1-.9l8.1-8.1 4.9 4.9c.2.2 1 .8 1.8.8.7 0 1.9-.5 1.9-2.4V3c.3-2-1.2-3-2.8-3zm.1 3.1v18.8l-4.7-4.6c-.6-.6-1.5-.6-2.1 0l-.2.2c-.2.2-.3.2-.4.4l-8.5 8.5c-.2.2-.5.4-.7.6-.2-.2-.4-.3-.6-.5l-1.5-1.4c-1.7-1.8-3.4-3.4-5-5.1-.2-.2-.3-.4-.4-.5.1-.1.2-.2.4-.5l6.1-6.1 2.6-2.6c.2-.2.2-.3.4-.4l.2-.2c.6-.6.6-1.5 0-2.1L8 3l19.1.1c0-.1 0-.1 0 0z"/></svg>
<svg id="checkmark_20-20" viewBox="0 0 20 20" width="20" height="20" x="376" y="356"><style>.st0{fill:#FFFFFF;}</style><path class="st0" d="M19.5 4.3l-1.9-1.9c-.3-.3-.7-.5-1.2-.5s-.9.2-1.2.5l-7.8 7.8-2.6-2.5c-.3-.4-.8-.6-1.3-.6s-1 .2-1.4.6L.6 9.2c-.4.4-.6.9-.6 1.4 0 .5.2 1 .6 1.4l5.6 5.6c.3.3.7.5 1.2.5s.9-.2 1.2-.5L19.5 6.7c.3-.3.5-.7.5-1.2s-.2-.9-.5-1.2zM18.7 6L7.9 16.9c-.3.3-.7.3-.9 0l-5.6-5.7c-.2-.2-.3-.4-.3-.6 0-.3.1-.5.3-.6l1.5-1.5c.1-.3.3-.4.6-.4s.5.1.6.3L7 11.3c.2.2.5.2.7 0l8.2-8.2c.3-.3.7-.3.9 0L18.7 5c.1.1.2.3.2.4 0 .3 0 .5-.2.6z"/></svg>
<svg id="clock-dark_18-18" viewBox="0 0 18 18" width="18" height="18" x="396" y="376"><style>.st0{fill:#565656;}</style><path class="st0" d="M9 0C4 0 0 4 0 9s4 9 9 9 9-4 9-9-4-9-9-9zm0 17.3C4.4 17.3.6 13.6.6 8.9.6 4.3 4.3.5 9 .5c4.6 0 8.4 3.7 8.4 8.4s-3.8 8.4-8.4 8.4z"/><path class="st0" d="M9 2.4c-.2 0-.3.1-.3.3v5.9H3.4c-.2 0-.3.1-.3.3s.1.3.3.3H9c.2 0 .3-.1.3-.3V2.7c0-.1-.1-.3-.3-.3z"/></svg>
<svg id="clock_18-18" viewBox="0 0 18 18" width="18" height="18" x="414" y="394"><style>.st0{fill:#FFFFFF;}</style><path class="st0" d="M9 0C4 0 0 4 0 9s4 9 9 9 9-4 9-9-4-9-9-9zm0 17.3C4.4 17.3.6 13.6.6 8.9.6 4.3 4.3.5 9 .5c4.6 0 8.4 3.7 8.4 8.4s-3.8 8.4-8.4 8.4z"/><path class="st0" d="M9 2.4c-.2 0-.3.1-.3.3v5.9H3.4c-.2 0-.3.1-.3.3s.1.3.3.3H9c.2 0 .3-.1.3-.3V2.7c0-.1-.1-.3-.3-.3z"/></svg>
<svg id="clock_40-40" viewBox="2 5 40 40" width="40" height="40" x="432" y="412"><style>.st0{fill:#ffffff;}</style><path class="st0" d="M22-5C11-5 2 4 2 15s9 20 20 20 20-9 20-20S33-5 22-5zm0 38c-9.9 0-17.9-8.1-17.9-17.9C4.1 5.2 12.2-2.8 22-2.8c9.9 0 17.9 8.1 17.9 17.9 0 9.8-8 17.9-17.9 17.9z"/><path class="st0" d="M21.3 1.1c-.2-.1-.3-.4-.3-.7s.1-.6.3-.7c.4-.4 1.1-.4 1.5 0 .1.1.2.4.2.7s-.1.6-.3.7c-.2.2-.4.3-.7.3-.3.1-.6 0-.7-.3zM8.4 15.1c0 .3-.1.6-.3.7-.2.2-.4.3-.7.3-.3 0-.5-.1-.7-.3-.2-.2-.3-.4-.3-.7 0-.3.1-.6.3-.7.4-.4 1.1-.4 1.5 0 .1.1.2.4.2.7zM22.7 28.9c.2.2.3.4.3.7s-.1.5-.3.7-.4.3-.7.3c-.3 0-.6-.1-.7-.3-.2-.2-.3-.4-.3-.7s.1-.6.3-.7c.4-.4 1-.4 1.4 0zM37.7 15.1c0 .3-.1.6-.3.7-.2.2-.4.3-.7.3s-.6-.1-.7-.3c-.2-.2-.3-.4-.3-.7 0-.3.1-.6.3-.7.4-.4 1.1-.4 1.5 0 .1.1.2.4.2.7zM20.9 15.1V5.6c0-.6.4-1 1-1s1 .4 1 1V14h5.7c.6 0 1 .4 1 1s-.4 1-1 1H22c-.6.1-1.1-.4-1.1-.9z"/></svg>
<svg id="close_20-20" viewBox="0 0 20 20" width="20" height="20" x="472" y="452"><style>.st1{fill:#555555;}</style><path class="st1" d="M19.6 2.5L12.1 10l7.5 7.5c.6.6.6 1.5 0 2.1-.3.3-.6.4-1 .4s-.7-.2-1-.4L10 12.1l-7.5 7.5c-.3.3-.6.4-1 .4s-.7-.2-1-.4c-.6-.6-.6-1.5 0-2.1L7.9 10 .4 2.5C-.1 2-.1 1 .4.4 1-.1 2-.1 2.5.4L10 7.9 17.5.4c.6-.6 1.5-.6 2.1 0 .5.6.5 1.5 0 2.1z"/></svg>
<svg id="credir-cards_245-30" viewBox="0 0 245 30" width="245" height="30" x="492" y="472"><style>.st0{fill:#65B9DF;}.st1{fill:#61B3D9;}.st2{fill:#FFFFFF;}.st3{fill:#5BAACD;}.st4{fill:#5664A6;}.st5{opacity:4.000000e-002;fill:#FFFFFF;enable-background:new ;}.st6{fill:#D76056;}.st7{fill:#E1CF4A;}.st8{fill:#FEF8EF;}.st9{fill:#403F41;}.st10{fill:#DFA146;}.st11{opacity:8.000000e-002;fill:#FFFFFF;enable-background:new ;}.st12{fill:#F3F4F4;}.st13{fill:#6B6B6B;}.st14{fill:#414042;}.st15{opacity:0.5;fill:#FFFFFF;enable-background:new ;}</style><path class="st0" d="M45 26.3c0 2.1-1.7 3.8-3.8 3.8H3.8c-2.1 0-3.8-1.7-3.8-3.8V3.8C0 1.7 1.7 0 3.8 0h37.5c2.1 0 3.8 1.7 3.8 3.8v22.5H45z"/><path class="st1" d="M43.9 1.1c.7.7 1.1 1.6 1.1 2.6v22.6c0 1-.4 2-1.1 2.6-.7.7-1.6 1.1-2.6 1.1H3.8c-1 0-2-.4-2.6-1.1L43.9 1.1z"/><path class="st2" d="M13.2 18.7l-.3-1.3h-2.3l-.4 1.3H8.1l2.3-7h2.5l2.3 7h-2zm-.8-2.9l-.3-1.1c-.1-.3-.2-.6-.3-1-.1-.4-.2-.7-.2-.9 0 .2-.1.4-.2.8s-.3 1.1-.6 2.2h1.6zM19 18.7l-1.4-5c.1.9.1 1.5.1 2v3H16v-7h2.5l1.5 4.9 1.4-4.9h2.5v7h-1.7v-3.1-.5s0-.7.1-1.4l-1.4 5H19zM29.3 18.7h-4.1v-7h4.1v1.5H27v1.1h2.1v1.5H27v1.3h2.3v1.6zM36.8 18.7h-2.2l-1.4-2.2-1.3 2.2h-2.1l2.3-3.6-2.2-3.4H32l1.3 2.2 1.2-2.2h2.1l-2.2 3.5 2.4 3.5z"/><g><path class="st2" d="M13.2 18.7l-.3-1.3h-2.3l-.4 1.3H8.1l2.3-7h2.5l2.3 7h-2zm-.8-2.9l-.3-1.1c-.1-.3-.2-.6-.3-1-.1-.4-.2-.7-.2-.9 0 .2-.1.4-.2.8s-.3 1.1-.6 2.2h1.6zM19 18.7l-1.4-5c.1.9.1 1.5.1 2v3H16v-7h2.5l1.5 4.9 1.4-4.9h2.5v7h-1.7v-3.1-.5s0-.7.1-1.4l-1.4 5H19zM29.3 18.7h-4.1v-7h4.1v1.5H27v1.1h2.1v1.5H27v1.3h2.3v1.6zM36.8 18.7h-2.2l-1.4-2.2-1.3 2.2h-2.1l2.3-3.6-2.2-3.4H32l1.3 2.2 1.2-2.2h2.1l-2.2 3.5 2.4 3.5z"/></g><g><path class="st4" d="M195 26.3c0 2.1-1.7 3.8-3.8 3.8h-37.5c-2.1 0-3.8-1.7-3.8-3.8V3.8c0-2.1 1.7-3.8 3.8-3.8h37.5c2.1 0 3.8 1.7 3.8 3.8v22.5z"/><path class="st5" d="M193.9 1.1c.7.7 1.1 1.6 1.1 2.6v22.6c0 1-.4 2-1.1 2.6-.7.7-1.6 1.1-2.6 1.1h-37.6c-1 0-2-.4-2.6-1.1l42.8-27.8z"/><path class="st6" d="M172.5 10c-1.4-1.6-3.4-2.5-5.6-2.5-4.1 0-7.5 3.4-7.5 7.5s3.4 7.5 7.5 7.5c2.2 0 4.3-1 5.6-2.6-1.2-1.3-1.9-3-1.9-4.9s.7-3.6 1.9-5z"/><path class="st6" d="M172.5 10c-1.2 1.3-1.9 3.1-1.9 5s.7 3.6 1.9 4.9c1.2-1.3 1.9-3 1.9-4.9s-.7-3.6-1.9-5z"/><path class="st7" d="M178.1 7.5c-2.2 0-4.3 1-5.6 2.5l-.9 1.2h1.7c.3.5.5 1 .7 1.5h-3c-.2.5-.3 1-.3 1.5h3.7c0 .2.1.5.1.8v.8h-3.7l.3 1.5h3c-.2.5-.4 1-.7 1.5h-1.7c.2.4.5.8.9 1.2 1.4 1.6 3.4 2.6 5.6 2.6 4.1 0 7.5-3.4 7.5-7.5-.1-4.2-3.4-7.6-7.6-7.6z"/></g><g><path class="st8" d="M95 26.3c0 2.1-1.7 3.8-3.8 3.8H53.7c-2.1 0-3.8-1.7-3.8-3.8V3.8c0-2.1 1.7-3.8 3.8-3.8h37.5C93.3 0 95 1.7 95 3.8v22.5z"/><path class="st9" d="M61.4 15c0 .8-.2 1.3-.6 1.7-.4.4-1 .6-1.9.6h-1.3v-4.6H59c.7 0 1.3.2 1.7.6.4.4.7 1 .7 1.7zm-1.1 0c0-1-.4-1.5-1.3-1.5h-.5v3h.4c1 0 1.4-.5 1.4-1.5zM62.2 17.3v-4.6h1v4.6h-1zM67 16c0 .4-.1.7-.4 1-.3.2-.7.4-1.2.4s-.9-.1-1.3-.3v-.9c.3.1.6.2.8.3.2.1.4.1.6.1.2 0 .4 0 .5-.1s.2-.2.2-.4c0-.1 0-.2-.1-.2 0-.1-.1-.1-.2-.2s-.3-.2-.6-.3c-.3-.1-.5-.3-.6-.4s-.3-.3-.3-.4-.1-.3-.1-.6c0-.4.1-.7.4-1 .3-.2.7-.3 1.1-.3.2 0 .5 0 .7.1s.4.1.7.2l-.3.8c-.2-.1-.4-.2-.6-.2-.2 0-.3-.1-.5-.1s-.3 0-.4.1c-.1.1-.1.2-.1.3 0 .1 0 .2.1.2 0 .1.1.1.2.2s.3.2.6.3c.4.2.7.4.9.6-.2.3-.1.5-.1.8zM69.7 13.5c-.4 0-.6.1-.8.4s-.3.7-.3 1.1c0 1 .4 1.5 1.1 1.5.3 0 .7-.1 1.2-.2v.8c-.4.2-.8.2-1.3.2-.7 0-1.2-.2-1.5-.6-.4-.4-.5-1-.5-1.7 0-.5.1-.9.3-1.2.2-.4.4-.6.7-.8.3-.2.7-.3 1.1-.3.4 0 .9.1 1.3.3l-.3.8c-.2-.1-.3-.2-.5-.2-.1-.1-.3-.1-.5-.1zM78.7 12.7h1l-1.6 4.6H77l-1.5-4.6h1l.9 2.7c0 .2.1.3.1.6 0 .2.1.4.1.4 0-.2.1-.5.2-1l.9-2.7zM82.8 17.3h-2.6v-4.6h2.6v.8h-1.7v1h1.5v.8h-1.5v1.2h1.7v.8zM84.8 15.5v1.8h-1v-4.6h1.3c.6 0 1.1.1 1.4.3.3.2.4.6.4 1 0 .3-.1.5-.2.7-.1.2-.4.4-.6.5.7 1 1.1 1.7 1.3 2h-1.1l-1.1-1.8-.4.1zm0-.8h.3c.3 0 .5-.1.7-.2.1-.1.2-.3.2-.5s-.1-.4-.2-.5-.4-.1-.7-.1h-.3v1.3z"/><circle class="st10" cx="73.3" cy="15" r="2.3"/><path class="st10" d="M95 20.6v5.6c0 .5-.1 1-.3 1.5-.2.4-.5.9-.8 1.2s-.7.6-1.2.8c-.4.2-.9.3-1.5.3H57.6L95 20.6z"/><path class="st11" d="M93.9 1.1c.7.7 1.1 1.6 1.1 2.6v22.6c0 1-.4 2-1.1 2.6-.7.7-1.6 1.1-2.6 1.1H53.7c-1 0-2-.4-2.6-1.1L93.9 1.1z"/></g><path class="st10" d="M144.3 22.5v3.8c0 2.1-1.7 3-3.8 3h-36c-2.1 0-3.8-.9-3.8-3v-3.8"/><g><path class="st12" d="M145 26.3c0 2.1-1.7 3.8-3.8 3.8h-37.5c-2.1 0-3.8-1.7-3.8-3.8V3.8c0-2.1 1.7-3.8 3.8-3.8h37.5c2.1 0 3.8 1.7 3.8 3.8v22.5z"/><path class="st4" d="M100 7.5V3.7c0-2.1 1.7-3.8 3.9-3.8h37.2c2.1 0 3.9 1.7 3.9 3.8v3.8M113 17.5c.3-.9.5-1.4.6-1.7l2.5-5.2h1.9l-4.4 8.6h-2l-.7-8.6h1.7l.3 5.2v.8c.1.5.1.8.1.9zM117.3 19.3l1.8-8.6h1.8l-1.8 8.6h-1.8zM126.4 16.8c0 .8-.3 1.5-.9 1.9-.6.5-1.4.7-2.3.7-.9 0-1.6-.2-2.1-.5v-1.6c.8.4 1.5.6 2.1.6.4 0 .8-.1 1-.2.2-.2.4-.4.4-.7 0-.2 0-.3-.1-.4s-.1-.2-.2-.4c-.1-.1-.3-.3-.7-.6-.5-.4-.9-.8-1.1-1.1-.2-.4-.3-.8-.3-1.2 0-.5.1-1 .4-1.4.2-.4.6-.7 1-.9.4-.2 1-.3 1.5-.3.8 0 1.6.2 2.3.6l-.6 1.4c-.6-.3-1.2-.4-1.7-.4-.3 0-.6.1-.8.3-.2.2-.3.4-.3.7 0 .2.1.4.2.6.1.2.4.4.9.7.5.3.8.7 1.1 1 .1.2.2.7.2 1.2zM132.1 17.2h-2.8l-1 2h-1.9l4.5-8.6h2.2l.9 8.6h-1.7l-.2-2zm-.1-1.5l-.2-2.1c0-.5-.1-1-.1-1.5V12l-.6 1.5-1.1 2.3h2v-.1z"/><path class="st5" d="M143.9 1.1c.7.7 1.1 1.6 1.1 2.6v22.6c0 1-.4 2-1.1 2.6s-1.6 1.1-2.6 1.1h-37.6c-1 0-2-.4-2.6-1.1l42.8-27.8z"/></g><g><path class="st13" d="M245 26.3c0 2.1-1.7 3.8-3.8 3.8h-37.5c-2.1 0-3.8-1.7-3.8-3.8V3.8c0-2.1 1.7-3.8 3.8-3.8h37.5c2.1 0 3.8 1.7 3.8 3.8v22.5z"/><path class="st14" d="M200.3 4.7h44.3v6h-44.3z"/><path class="st15" d="M205.8 13.7h27v6h-27z"/><path class="st14" d="M208.1 16h21.8v1.5h-21.8z"/><path class="st15" d="M235.1 13.7h6v6h-6z"/><path class="st14" d="M235.8 16h4.5v1.5h-4.5z"/></g></svg>
<svg id="cups_40-40" viewBox="0 0 40 40" width="40" height="40" x="737" y="502"><style>.st0{fill:#72B15F;}</style><path class="st0" d="M40 8.6V5.5c-.1-1.1-.8-1.8-1.8-1.9H32V2.3c0-1-.8-1.8-1.8-1.8H9.1c-1 0-1.8.8-1.8 1.8v1.4H1.8c-1 0-1.7.8-1.8 1.8v3.1c0 .8-.3 8.6 8.1 9.9 1.3 3.7 4.3 6.6 8.2 7.7v5l-6.7 3.2s-.1 0-.1.1c-1 .6-1.5 1.4-1.5 2.3v1.1c.1 1 .8 1.7 1.9 1.7h19.6c1.1 0 1.8-.7 1.9-1.7v-1.1c0-.9-.5-1.7-1.5-2.3l-.1-.1-6.6-3.1v-5.1c3.7-1.1 6.7-4 8-7.6 2.8-.4 5-1.4 6.5-3.2 2.5-2.8 2.3-6.3 2.3-6.8zm-32.4 8c-6.2-1.5-5.7-7.5-5.7-7.8V5.7v-.1h5.5v8.9c0 .4 0 .7.1 1v.1c0 .3 0 .6.1 1 0-.1 0-.1 0 0zm22 20.1v.9H9.9v-.9c0-.3.3-.5.5-.6l6.9-3.2h4.9l6.9 3.2c.2.1.5.3.5.6zm-8.2-9.9V31h-3.3v-4.2h3.3zm-1.7-1.9c-4.7 0-8.7-3.1-10-7.4-.1-.3-.1-.5-.2-.8-.1-.5-.1-1-.2-1.4v-.1c0-.3-.1-.5-.1-.7V2.4h20.9v11.9c0 .3 0 .5-.1.7v.1c0 .2-.1.5-.1.7v.1c-.1.3-.1.5-.1.7 0 .1 0 .1-.1.1-.1.2-.1.4-.1.6-1.2 4.4-5.2 7.6-9.9 7.6zm16.7-10.6c-1.1 1.3-2.6 2.1-4.5 2.4v-.1c.1-.4.1-.7.1-1v-.1c.1-.4.1-.7.1-1.1V5.5h6.1v3.2c-.1.1.2 3.2-1.8 5.6zm-18.6 6.2c-.1.4-.5.6-.9.6-.1 0-.2 0-.4-.1-3.1-1.2-3.7-3.9-3.7-5.2V6.4c0-.5.4-.9.9-.9s.9.4.9.9v9.5c0 .1-.1 2.5 2.5 3.4.7.2.9.8.7 1.2z"/></svg>
<svg id="email_16-12" viewBox="0 0 16 12" width="16" height="12" x="777" y="542"><style>.st0{fill:#E0E0E0;}</style><path class="st0" d="M16 1.4c0-.3-.1-.6-.3-.8l-.1-.1s-.1 0-.1-.1H.9.6S.5.4.5.5L.4.6.3.7c-.1.3-.2.4-.3.7v9.3c0 .3.2.5.4.7.2.1.4.2.7.2h14.2c.5-.2.7-.6.7-.9V1.4c0 .1 0 .1 0 0 0 .1 0 .1 0 0zm-1.3-.1L8.1 7.6 6.6 6.1l-5.2-5 13.3.2zM.8 10.4V1.7l4.9 4.7-4.9 4zm7.1.5H1.5L6.3 7l1.5 1.5c.1.1.1.1.2.1s.1 0 .2-.1l1.4-1.4 4.8 3.8H7.9zm7.4-.5l-4.9-4 4.9-4.8v8.8z"/></svg>
<svg id="format-icon1_40-40" viewBox="0 0 40 40" width="40" height="40" x="793" y="554"><style>.st0{fill:#FFFFFF;}</style><path class="st0" d="M32.9 12.5c0-.1 0-.1-.1-.2 0 0-.1-.1-.1-.2l-9.4-9.3s-.1-.1-.2-.1c0 0-.1 0-.2-.1H9.3c-1.2 0-2.2 1-2.2 2.2v30.5c0 1.2 1 2.2 2.2 2.2h21.3c1.2 0 2.2-1 2.2-2.2V12.7c.1-.1.1-.2.1-.2zm-2.7-.6h-6.7V5.2l6.7 6.7zm1.1 23.4c0 .4-.3.7-.7.7H9.3c-.4 0-.7-.3-.7-.7V4.8c0-.4.3-.7.7-.7H22v8.5c0 .4.3.8.8.8h8.6l-.1 21.9zm-3.6-8.2c0 .4-.3.8-.8.8h-14c-.4 0-.8-.3-.8-.8 0-.4.3-.8.8-.8H27c.4 0 .7.3.7.8zm0 4.6c0 .4-.3.8-.8.8h-14c-.4 0-.8-.3-.8-.8s.3-.8.8-.8H27c.4.1.7.4.7.8zm0-9.3c0 .4-.3.8-.8.8h-14c-.4 0-.8-.3-.8-.8 0-.4.3-.8.8-.8H27c.4.1.7.4.7.8zM12.9 17H27c.4 0 .8.3.8.8s-.3.8-.8.8H12.9c-.4 0-.8-.3-.8-.8 0-.4.4-.8.8-.8zm-.8-3.8c0-.4.3-.8.8-.8h4.9c.4 0 .8.3.8.8 0 .4-.3.8-.8.8H13c-.5 0-.9-.4-.9-.8zm0-4.6c0-.4.3-.8.8-.8h4.9c.4 0 .8.3.8.8 0 .4-.3.8-.8.8H13c-.5-.1-.9-.4-.9-.8z"/></svg>
<svg id="format-icon2_40-40" viewBox="0 0 40 40" width="40" height="40" x="833" y="594"><style>.st0{fill:#FFFFFF;}</style><path class="st0" d="M29.5 15.3c0-.1 0-.1-.1-.2 0 0-.1-.1-.1-.2L21 6.7s-.1-.1-.2-.1c0 0-.1 0-.2-.1H8.8c-1.1.1-2 1-2 2.1v26.9c0 1.1.9 2 2 2h18.8c1.1 0 2-.9 2-2v-20c-.1-.1-.1-.2-.1-.2zm-2.3-.6h-5.9V8.9l5.9 5.8zm1.1 20.6c0 .4-.3.6-.6.6H8.8c-.4 0-.6-.3-.6-.6V8.5c0-.4.3-.6.6-.6H20v7.5c0 .4.3.7.7.7h7.6v19.2z"/><path class="st0" d="M29.4 4.5H10.3c-1.1 0-1.8.8-1.8 1.8v.2h1.4v-.1c0-.3.2-.4.4-.4h19.2c.3 0 .4.2.4.4v27.1c0 .3-.2.4-.3.4v1.4c1 0 1.8-.9 1.8-1.8V6.4c-.2-1-.9-1.9-2-1.9z"/><path class="st0" d="M31.2 2.5H12.1c-1 0-1.8.8-1.8 1.8v.3h1.4v-.3c0-.3.2-.4.4-.4h19.2c.3 0 .4.2.4.4v27.1c0 .3-.2.4-.4.4v1.4c1 0 1.8-.9 1.8-1.8V4.3c0-1-.9-1.8-1.9-1.8z"/></svg>
<svg id="format-icon31_40-40" viewBox="0 0 40 40" width="40" height="40" x="873" y="634"><style>.st0{fill:#FFFFFF;}</style><path class="st0" d="M32.9 12.4c0-.1 0-.1-.1-.2 0 0-.1-.1-.1-.2l-9.4-9.3s-.1-.1-.2-.1h-.2H9.3c-1.2 0-2.2 1-2.2 2.2v30.5c0 1.2 1 2.2 2.2 2.2h21.4c1.2 0 2.2-1 2.2-2.2V12.6v-.2zm-2.6-.6h-6.7V5.1l6.7 6.7zm1.1 23.5c0 .4-.3.7-.7.7H9.3c-.4 0-.7-.3-.7-.7V4.7c0-.4.3-.7.7-.7H22v8.5c0 .4.3.8.8.8h8.6v22zm-3.6-8.2c0 .4-.3.8-.8.8H12.9c-.4 0-.8-.3-.8-.8 0-.4.3-.8.8-.8H27c.4 0 .8.3.8.8zm0 4.7c0 .4-.3.8-.8.8H12.9c-.4 0-.8-.3-.8-.8s.3-.8.8-.8H27c.4 0 .8.3.8.8zm0-9.4c0 .4-.3.8-.8.8H12.9c-.4 0-.8-.3-.8-.8s.3-.8.8-.8H27c.4 0 .8.4.8.8zM12.9 17H27c.4 0 .8.3.8.8s-.3.8-.8.8H12.9c-.4 0-.8-.3-.8-.8s.3-.8.8-.8zm-.8-8.5c0-.4.3-.8.8-.8h4.9c.4 0 .8.3.8.8 0 .4-.3.8-.8.8h-1.7v3.3c0 .4-.3.8-.8.8-.4 0-.8-.3-.8-.8V9.3h-1.7c-.4 0-.7-.4-.7-.8z"/></svg>
<svg id="format-icon3_40-40" viewBox="0 0 40 40" width="40" height="40" x="913" y="674"><style>.st0{fill:#FFFFFF;}</style><path class="st0" d="M33.3 2.5H6.6c-1.2 0-2.3 1-2.3 2.3V13.4c0 1.2 1 2.3 2.3 2.3h4c1.2 0 2.3-1 2.3-2.3V11h2.8v17.9h-3.1c-1.2 0-2.2 1-2.2 2.2v4.2c0 1.2 1 2.2 2.2 2.2h3.8c.1 0 .1.1.2.1h6.7c.1 0 .1 0 .2-.1h3.7c1.2 0 2.2-1 2.2-2.2v-4.2c0-1.2-1-2.2-2.2-2.2h-3V11h2.9v2.3c0 1.2 1 2.3 2.3 2.3h4c1.2 0 2.3-1 2.3-2.3V4.8c-.1-1.3-1.1-2.3-2.4-2.3zm.5 10.8c0 .2-.2.4-.4.4h-4c-.2 0-.4-.2-.4-.4v-3.2c0-.5-.4-.9-.9-.9h-4.8c-.5 0-.9.4-.9.9v19.8c0 .5.4.9.9.9h4c.2 0 .3.1.3.3v4.2c0 .2-.1.3-.3.3h-4c-.1 0-.1 0-.2.1h-6.2c-.1 0-.1-.1-.2-.1h-4.1c-.2 0-.3-.1-.3-.3v-4.2c0-.2.1-.3.3-.3h4.1c.5 0 .9-.4.9-.9V10.1c0-.5-.4-.9-.9-.9H12c-.5 0-.9.4-.9.9v3.2c0 .2-.2.4-.4.4h-4c-.2 0-.4-.2-.4-.4V5.2v-.4c0-.2.2-.4.4-.4h26.7c.2 0 .4.2.4.4v8.5z"/></svg>
<svg id="format-icon4_40-40" viewBox="2 5 40 40" width="40" height="40" x="953" y="714"><style>.st0{fill:#FFFFFF;}</style><path class="st0" d="M36.5 11.1h-7.8V4.9c0-1.6-1.3-3-3-3H7.5c-1.6 0-3 1.3-3 3v11c0 1.6 1.3 3 3 3h7.8v6.3c0 1.6 1.3 3 3 3h18.2c1.6 0 3-1.3 3-3v-11c0-1.7-1.3-3.1-3-3.1zm-20.4 6.2H7.4c-.8 0-1.4-.6-1.4-1.4v-11c0-.8.6-1.4 1.4-1.4h18.2c.8 0 1.4.6 1.4 1.4V15.8c0 .8-.6 1.4-1.4 1.4l-9.5.1zm20.4 9.2H18.3c-.8 0-1.4-.6-1.4-1.4v-6.3h8.8c.6 0 1.1-.2 1.6-.5h5.9c.4 0 .8-.3.8-.8 0-.4-.3-.8-.8-.8h-4.6c.1-.3.2-.6.2-1v-3h7.7c.8 0 1.4.6 1.4 1.4v11c0 .8-.6 1.4-1.4 1.4z"/><path class="st0" d="M33.9 21.9c0 .4-.3.8-.8.8H21.7c-.4 0-.8-.3-.8-.8 0-.4.3-.8.8-.8h11.5c.4 0 .7.4.7.8zM22.2 14.9H10.8c-.4 0-.8-.4-.8-.9 0-.4.3-.8.8-.8h11.4c.4 0 .8.3.8.8s-.4.9-.8.9zM10 6.4c0-.4.4-.8.9-.8h6.9c.4 0 .8.3.8.8 0 .4-.3.8-.8.8h-7c-.4.1-.8-.3-.8-.8zM22.2 11H10.8c-.4 0-.8-.3-.8-.8s.3-.8.8-.8h11.4c.4 0 .8.3.8.8 0 .6-.4.8-.8.8z"/></svg>
<svg id="format-icon5_40-40" viewBox="0 0 40 40" width="40" height="40" x="993" y="754"><style>.st0{fill:#FFFFFF;}</style><path class="st0" d="M36.9 13.6l-7.8-7.8c-.8-.8-2-.8-2.8 0l-3.8 3.8-2.7 2.7-2.2-2.2-3.8-3.8c-.8-.8-2.1-.8-2.9 0l-7.6 7.8c-.8.8-.8 2.1 0 2.9l3.8 3.8 3.6 3.6-.1.1c-.1.1-.1.2-.2.3-.4.4-.6.8-.6 1.4s.2 1 .6 1.4l6.3 6.3c.4.4.9.6 1.4.6.5 0 1-.2 1.4-.6l.4-.4.6.6c.2.2.7.4 1.2.4.4 0 .8-.1 1.4-.6l6.3-6.3c1.1-1.1.8-2.2.1-2.9l-.5-.5 4.2-4.2 3.8-3.8c.4-.4.6-.9.6-1.4-.1-.3-.4-.8-.7-1.2zM4.2 15.2L12 7.5c.1-.1.2-.1.3-.1.1 0 .2 0 .3.1l3.3 3.3-8.4 8.3-3.3-3.3c-.1-.1-.1-.4 0-.6zM18 32.9s-.1 0-.2-.1l-6.3-6.3c-.1-.1-.1-.2-.1-.2s0-.1.1-.2l.2-.2.4-.4 1-1h.2s.1 0 .2.1l6.3 6.3c.1.1.1.4 0 .4l-.8.8-.9.9c0-.1-.1-.1-.1-.1zm10-6.3L21.8 33c-.1.1-.2.1-.2.1h-.1l-.6-.6.1-.1s.1-.1.1-.2l.1-.1V32c0-.1.1-.1.1-.2.3-.7.1-1.5-.4-2.1l-6.3-6.4-.3-.3h-.1c-.1 0-.1-.1-.2-.1H13.7 13.1h-.2c-.1 0-.2 0-.3.1-.2.1-.4.2-.7.4l-.1.1-3.1-3.1 8.4-8.2 1.6 1.6-4.5 4.2c-.6.6-.8 1.6 0 2.4l1.7 1.7c.1.1.2.1.3.2.3.2.6.3.9.3h.3c.1 0 .2 0 .3-.1.1 0 .2-.1.3-.1.1 0 .2-.1.3-.2l2.9-2.9L28 26l.1.1c.2.1.2.2-.1.5zm-.3-3.3L22.4 18l.8-.8c.2-.2.2-.4.2-.6s-.1-.4-.2-.6c-.3-.3-.8-.3-1.2 0l-1.3 1.3-3.4 3.4s-.1 0-.1.1l-1.7-1.7V19v-.1l7.7-7.7 4.6 4.6 3.7 3.7-3.8 3.8zm8-8l-3.2 3.2-6.7-6.7-1.6-1.6L27.5 7c.1-.1.2-.1.3-.1 0 0 .2 0 .3.1l7.8 7.8c.1.1.1.2.1.3-.2 0-.2.1-.3.2z"/></svg>
<svg id="format-icon6_40-40" viewBox="0 0 40 40" width="40" height="40" x="1033" y="794"><style>.st0{fill:#FFFFFF;}</style><path class="st0" d="M32.8 12.3s-.1-.1-.1-.2l-9.4-9.3s-.1-.1-.2-.1c0 0-.1 0-.2-.1H9.3c-1.2 0-2.2 1-2.2 2.2v30.5c0 1.2 1 2.2 2.2 2.2h21.3c1.2 0 2.2-1 2.2-2.2V12.7c.1-.1.1-.2.1-.2 0-.1 0-.1-.1-.2zm-9.3-7.1l6.7 6.7h-6.7V5.2zm7.8 30.1c0 .4-.3.7-.7.7H9.3c-.4 0-.7-.3-.7-.7V4.8c0-.4.3-.7.7-.7H22v8.5c0 .4.3.8.8.8h8.6l-.1 21.9z"/></svg>
<svg id="format-icon7_40-40" viewBox="2 5 40 40" width="40" height="40" x="1073" y="834"><style>.st0{fill:#FFFFFF;}</style><path class="st0" d="M28 3.4c0 .4-.3.8-.8.8h-13c-.4 0-.8-.3-.8-.8s.3-.8.8-.8h13c.5 0 .8.3.8.8zM28 7.7c0 .4-.3.8-.8.8h-13c-.4 0-.8-.3-.8-.8s.3-.8.8-.8h13c.5 0 .8.3.8.8zM28 12c0 .4-.3.8-.8.8h-13c-.4 0-.8-.3-.8-.8s.3-.8.8-.8h13c.5 0 .8.3.8.8z"/><path class="st0" d="M34.5 17.5c-.4-.7-.9-1.4-1.5-1.8v-16c0-1.2-.9-2.1-2.1-2.1h-20c-1.2 0-2.1.9-2.1 2.1V28c0 1.2.9 2.1 2.1 2.1h14.3V31.5c.1.7.6 1 1 1s.7-.3.9-.4l2-1.7 2.1 1.8c.3.2.6.3.8.3.2 0 1.1-.1 1.1-1.4v-6.5c2.1-1.8 2.6-4.7 1.4-7.1zm-9.3 10.9H10.9c-.3 0-.5-.2-.5-.5V-.4c0-.3.2-.5.5-.5h19.8c.3 0 .5.2.5.5V15c-.6-.3-1.3-.4-2-.4-.8 0-1.5.1-2.2.4l-.6.3c-.1.1-.2.1-.3.2H14.2c-.4 0-.8.3-.8.8s.3.8.8.8h10.2c-.4.5-.7 1.1-.9 1.8-.1.3-.1.6-.2.9h-9.1c-.4 0-.8.3-.8.8 0 .4.3.8.8.8h9.1c.1.5.2.9.4 1.4l.3.6c.1.1.1.3.2.3 0 0 0 .1.1.1l.2.2H14.2c-.4 0-.8.3-.8.8s.3.8.8.8h11v2.8zm6.5 1.9l-1.9-1.6c-.1-.1-.3-.2-.5-.2s-.4 0-.5.2l-1.9 1.6v-4.7s.1 0 .2.1c.5.2 1 .4 1.6.4h2.4s.2 0 .3-.1h.1l.2 4.3zm.3-6.6l-.3.3c-.1.1-.2.1-.3.2-.1 0-.3.1-.4.2h-.1H30.6c-1.1.3-2.2.2-3.2-.3 0 0-.1 0-.2-.1h-.1-.1l-.3-.3c-.1-.1-.3-.2-.4-.3l-.1-.1-.3-.3s0-.1-.1-.1c-.1-.2-.2-.3-.3-.5-.3-.7-.5-1.4-.5-2 0-1.5.8-3 2.3-3.8.2-.1.3-.2.5-.3.9-.3 1.9-.3 2.8 0 .2.1.3.1.5.2h.1c.1.1.2.1.3.2.6.4 1.1.9 1.5 1.6 1.1 1.8.6 4-1 5.4z"/></svg>
<svg id="garbage_24-30" viewBox="0 0 24 30" width="24" height="30" x="1113" y="874"><style>.st0{fill:#565656;}</style><path class="st0" d="M21.5 3.8h-5.3C15.9 1.7 14.1 0 11.9 0c-2.2 0-4 1.6-4.3 3.8H2.4c-1 0-1.8.8-1.8 1.8v1.9c0 .9.7 1.7 1.6 1.8v18.3c0 1.3 1.1 2.4 2.4 2.4h14.9c1.3 0 2.4-1.1 2.4-2.4V9.4c.9-.1 1.6-.9 1.6-1.8V5.7c-.2-1.1-1-1.9-2-1.9zm-9.7-2.4c1.5 0 2.7 1 2.9 2.4H8.9c.3-1.4 1.5-2.4 2.9-2.4zm8.5 26.2c0 .6-.5 1-1 1H4.4c-.6 0-1-.5-1-1V9.4h16.9v18.2zm1.6-20.1c0 .3-.2.5-.5.5H2.2c-.3 0-.5-.2-.5-.5V5.6c0-.3.2-.5.5-.5h19.1c.3 0 .5.2.5.5l.1 1.9zM6.5 25V13.2c0-.4.3-.7.7-.7s.7.3.7.7V25c0 .4-.3.7-.7.7-.4.1-.7-.3-.7-.7zm4.7 0V13.2c0-.4.3-.7.7-.7.4 0 .7.3.7.7V25c0 .4-.3.7-.7.7-.4.1-.7-.3-.7-.7zm4.8 0V13.2c0-.4.3-.7.7-.7.4 0 .7.3.7.7V25c0 .4-.3.7-.7.7-.4.1-.7-.3-.7-.7z"/></svg>
<svg id="mark_40-40" viewBox="0 0 40 40" width="40" height="40" x="1137" y="904"><style>.st0{fill:#72B15F;}</style><path class="st0" d="M22 9.1v11.8c0 1.7 1.4 3.1 3.1 3.1h2.5l-4.5 7.5c-.5.8-.3 1.4-.1 1.7.3.5.9.8 1.5.8h7.1c1.5 0 2.3-.9 2.6-1.4l5.3-10.2c.1-.1.1-.2.2-.3l.1-.1c.1-.1.1-.2.1-.3.1-.3.2-.6.2-.9v-8c0-.6-.2-1.5-1-2.4L35.5 7c-.3-.3-1.3-1-2.6-1h-7.7C23.4 6 22 7.4 22 9.1zm2.1 11.8V9.1c0-.6.5-1 1-1h7.7c.6 0 1 .3 1.1.5l3.5 3.5c.3.3.4.7.4.9v7.9c0 .1 0 .2-.1.3v.1c0 .1-.1.1-.1.1l-5.4 10.2c0 .1-.2.3-.7.3h-6.1l5-8.4c.2-.3.2-.7 0-1.1-.2-.3-.5-.5-.9-.5H25c-.5 0-.9-.5-.9-1zM0 9.1v11.8C0 22.6 1.4 24 3.1 24h2.7l-4.7 7.5c-.5.8-.3 1.4-.1 1.7.3.5.9.8 1.6.8h7.1c1.5 0 2.3-.9 2.6-1.4l5.3-10.2c.1-.1.1-.2.2-.3l.1-.1c.1-.1.1-.2.1-.3.1-.3.2-.6.2-.9v-8c0-.6-.2-1.5-1-2.4L13.5 7c-.3-.3-1.3-1-2.6-1H3.1C1.4 6 0 7.4 0 9.1zm2.1 11.8V9.1c0-.6.5-1 1-1h7.7c.6 0 1 .3 1.1.5l3.5 3.5c.3.3.4.7.4.9v7.9c0 .1 0 .2-.1.3v.1c0 .1-.1.1-.1.1l-5.4 10.2c0 .1-.2.3-.7.3h-6l5-8.4c.2-.3.2-.7 0-1.1-.2-.3-.5-.5-.9-.5H3.1c-.5 0-1-.5-1-1z"/></svg>
<svg id="marks_35-30" viewBox="0 0 35 30" width="35" height="30" x="1177" y="944"><style>.st0{fill:#E0E0E0;stroke:#E0E0E0;stroke-width:2;stroke-linejoin:round;stroke-miterlimit:10;}.st1{fill:#E0E0E0;stroke:#E0E0E0;stroke-width:2;stroke-linecap:round;stroke-linejoin:round;stroke-miterlimit:10;}</style><path class="st0" d="M26.9 16.1c0 3.8 0 4.4-3.1 4.4v7c7.3 0 9.4-4.9 9.4-13.5V2.5H19.7V14H27l-.1 2.1z"/><path class="st1" d="M9 13.9v2.2c0 3.8 0 4.4-3.1 4.4v7c7.3 0 9.4-4.9 9.4-13.5V2.5H1.8V14c-.1-.1 7.2-.1 7.2-.1z"/></svg>
<svg id="messages-white_30-26" viewBox="0 0 30 26" width="30" height="26" x="1212" y="974"><style>.st0{fill:#FFFFFF;}</style><path class="st0" d="M26.5.8h-23C1.6.8 0 2.4 0 4.3v13.8c0 1.9 1.6 3.5 3.5 3.5h2.4L8 24.5c.1.2.6.7 1.3.7.3 0 .8-.1 1.3-.8l2.1-2.8h13.7c1.9 0 3.5-1.6 3.5-3.5V4.3C30 2.4 28.4.8 26.5.8zm2.2 17.3c0 1.2-1 2.1-2.1 2.1h-14c-.2 0-.4.1-.5.3l-2.3 3.1c-.1.2-.2.2-.2.2s-.2-.1-.3-.2L7 20.5c-.1-.2-.3-.3-.5-.3H3.7c-1.2 0-2.1-1-2.1-2.1V4.3c0-1.2 1-2.1 2.1-2.1h23c1.2 0 2.1 1 2.1 2.1l-.1 13.8zm-4.3-6.7c0 .4-.3.7-.7.7H6.1c-.4 0-.7-.3-.7-.7s.3-.7.7-.7h17.7c.4 0 .6.3.6.7zm0 4c0 .4-.3.7-.7.7H6.1c-.4 0-.7-.3-.7-.7s.3-.7.7-.7h17.7c.4 0 .6.3.6.7zm-19-8c0-.4.3-.7.7-.7h10.6c.4 0 .7.3.7.7s-.3.7-.7.7H6.1c-.3 0-.7-.4-.7-.7z"/></svg>
<svg id="messages_30-26" viewBox="0 0 30 26" width="30" height="26" x="1242" y="1000"><style>.st0{fill:#565656;}</style><path class="st0" d="M26.5.8h-23C1.6.8 0 2.4 0 4.3v13.8c0 1.9 1.6 3.5 3.5 3.5h2.4L8 24.5c.1.2.6.7 1.3.7.3 0 .8-.1 1.3-.8l2.1-2.8h13.7c1.9 0 3.5-1.6 3.5-3.5V4.3C30 2.4 28.4.8 26.5.8zm2.2 17.3c0 1.2-1 2.1-2.1 2.1h-14c-.2 0-.4.1-.5.3l-2.3 3.1c-.1.2-.2.2-.2.2s-.2-.1-.3-.2L7 20.5c-.1-.2-.3-.3-.5-.3H3.7c-1.2 0-2.1-1-2.1-2.1V4.3c0-1.2 1-2.1 2.1-2.1h23c1.2 0 2.1 1 2.1 2.1l-.1 13.8zm-4.3-6.7c0 .4-.3.7-.7.7H6.1c-.4 0-.7-.3-.7-.7s.3-.7.7-.7h17.7c.4 0 .6.3.6.7zm0 4c0 .4-.3.7-.7.7H6.1c-.4 0-.7-.3-.7-.7s.3-.7.7-.7h17.7c.4 0 .6.3.6.7zm-19-8c0-.4.3-.7.7-.7h10.6c.4 0 .7.3.7.7s-.3.7-.7.7H6.1c-.3 0-.7-.4-.7-.7z"/></svg>
<svg id="padlock_40-40" viewBox="0 0 40 40" width="40" height="40" x="1272" y="1026"><style>.st0{fill:#ffffff;}</style><path class="st0" d="M20.8 32.6h-2c-.1 0-.3-.1-.3-.3v-6c0-.2-.1-.5-.3-.7-.5-.4-.8-1.1-.8-1.8 0-1.3 1.1-2.4 2.4-2.4 1 0 1.8.6 2.2 1.4h1.8c-.4-1.8-2-3.1-4-3.1-2.3 0-4.2 1.9-4.2 4.2 0 1.1.4 2.1 1.1 2.8v5.6c0 1.1.9 2.1 2.1 2.1h2c1.1 0 1.9-.8 2-1.9l-2 .1z"/><path class="st0" d="M33.1 14.3v-1.2C33.1 5.8 27.2 0 20 0S6.9 5.9 6.9 13.1v1.1c-1 .2-1.8 1.1-1.8 2.2v17.3c0 3.4 2.8 6.3 6.3 6.3h17.2c3.4 0 6.3-2.8 6.3-6.3V16.4c0-1-.8-1.9-1.8-2.1zM20 1.8c6.3 0 11.4 5.1 11.4 11.4v1.1h-3.2v-1.2c0-4.4-3.6-8.1-8.1-8.1-4.4 0-8.1 3.6-8.1 8.1v1.2H8.7v-1.1c0-6.4 5-11.4 11.3-11.4zM26.4 13v1.2H13.8V13c0-3.5 2.8-6.3 6.3-6.3s6.3 2.8 6.3 6.3zm2.2 25.3H11.4c-2.5 0-4.5-2-4.5-4.5V16.5c0-.3.2-.5.5-.5h25.1c.3 0 .5.2.5.5v17.3c.1 2.5-1.9 4.5-4.4 4.5z"/></svg>
<svg id="pages-40_40" viewBox="0 0 40 40" width="40" height="40" x="1312" y="1066"><style>.st0{fill:#B7D74C;opacity:0.5;}</style><path class="st0" d="M30.9 14.6c0-.1 0-.1-.1-.2 0 0-.1-.1-.1-.2l-9.5-9.4s-.1-.1-.2-.1c0 0-.1 0-.2-.1H7.3C6.1 4.7 5 5.7 5 7v30.7C5 38.9 6 40 7.3 40h21.5c1.2 0 2.3-1 2.3-2.3V14.9c-.2-.2-.2-.3-.2-.3zm-2.6-.7h-6.8V7.3l6.8 6.6zm1.2 23.6c0 .4-.3.7-.7.7H7.3c-.4 0-.7-.3-.7-.7V6.9c0-.4.3-.7.7-.7H20v8.6c0 .4.3.8.8.8h8.7v21.9z"/><path class="st0" d="M30.8 2.3H9c-1.2 0-2.1.9-2.1 2.1v.2h1.6v-.1c0-.3.2-.5.5-.5h21.9c.3 0 .5.2.5.5v31c0 .3-.2.5-.4.5v1.6c1.1 0 2-1 2-2.1v-31c-.1-1.2-1-2.2-2.2-2.2z"/><path class="st0" d="M32.9 0H11C9.9 0 9 .9 9 2.1v.3h1.6v-.3c0-.3.2-.5.5-.5H33c.3 0 .5.2.5.5v31c0 .3-.2.5-.5.5v1.6c1.1 0 2.1-1 2.1-2.1v-31C35 .9 34 0 32.9 0z"/></svg>
<svg id="price-color_40-40" viewBox="0 0 40 40" width="40" height="40" x="1352" y="1106"><style>.st0{fill:#F0F0EF;}</style><path class="st0" d="M20 13.6c-3.5 0-6.4 2.9-6.4 6.4s2.9 6.4 6.4 6.4 6.4-2.9 6.4-6.4-3-6.4-6.4-6.4zM20 25c-2.8 0-5-2.2-5-5s2.2-5 5-5 5 2.2 5 5-2.3 5-5 5z"/><path class="st0" d="M20 2.6C10.3 2.6 2.5 10.3 2.5 20S10.3 37.4 20 37.4 37.4 29.7 37.4 20 29.6 2.6 20 2.6zM20 36c-8.8 0-16-7.3-16-16S11.2 4 20 4s16 7.3 16 16-7.3 16-16 16z"/><path class="st0" d="M11 20.7H.5c-.2 0-.5-.3-.5-.6v-.2c0-.3.2-.6.5-.6H11c.2 0 .5.3.5.6v.2c0 .3-.2.6-.5.6zM39.4 20.7H28.9c-.2 0-.5-.3-.5-.6v-.2c0-.3.2-.6.5-.6h10.5c.2 0 .5.3.5.6v.2c0 .3-.2.6-.5.6zM20.6.6V11c0 .2-.3.5-.6.5h-.2c-.3 0-.6-.2-.6-.5V.5c0-.2.3-.5.6-.5h.2c.3.1.6.3.6.6zM20.6 29v10.5c0 .2-.3.5-.6.5h-.2c-.3 0-.6-.2-.6-.5V29c0-.2.3-.5.6-.5h.2c.3 0 .6.2.6.5z"/><path class="st0" d="M20 10.6c-5.2 0-9.4 4.2-9.4 9.4s4.2 9.4 9.4 9.4 9.4-4.2 9.4-9.4-4.3-9.4-9.4-9.4zM20 28c-4.4 0-8-3.6-8-8s3.6-8 8-8 8 3.6 8 8-3.7 8-8 8z"/></svg>
<svg id="price-white_40-40" viewBox="0 0 40 40" width="40" height="40" x="1392" y="1146"><style>.st0{fill:#FFFFFF;}</style><path class="st0" d="M20 13.6c-3.5 0-6.4 2.9-6.4 6.4s2.9 6.4 6.4 6.4 6.4-2.9 6.4-6.4-3-6.4-6.4-6.4zM20 25c-2.8 0-5-2.2-5-5s2.2-5 5-5 5 2.2 5 5-2.3 5-5 5z"/><path class="st0" d="M20 2.6C10.3 2.6 2.5 10.3 2.5 20S10.3 37.4 20 37.4 37.4 29.7 37.4 20 29.6 2.6 20 2.6zM20 36c-8.8 0-16-7.3-16-16S11.2 4 20 4s16 7.3 16 16-7.3 16-16 16z"/><path class="st0" d="M11 20.7H.5c-.2 0-.5-.3-.5-.6v-.2c0-.3.2-.6.5-.6H11c.2 0 .5.3.5.6v.2c0 .3-.2.6-.5.6zM39.4 20.7H28.9c-.2 0-.5-.3-.5-.6v-.2c0-.3.2-.6.5-.6h10.5c.2 0 .5.3.5.6v.2c0 .3-.2.6-.5.6zM20.6.6V11c0 .2-.3.5-.6.5h-.2c-.3 0-.6-.2-.6-.5V.5c0-.2.3-.5.6-.5h.2c.3.1.6.3.6.6zM20.6 29v10.5c0 .2-.3.5-.6.5h-.2c-.3 0-.6-.2-.6-.5V29c0-.2.3-.5.6-.5h.2c.3 0 .6.2.6.5z"/><path class="st0" d="M20 10.6c-5.2 0-9.4 4.2-9.4 9.4s4.2 9.4 9.4 9.4 9.4-4.2 9.4-9.4-4.3-9.4-9.4-9.4zM20 28c-4.4 0-8-3.6-8-8s3.6-8 8-8 8 3.6 8 8-3.7 8-8 8z"/></svg>
<svg id="profile-big_50-50" viewBox="0 0 50 50" width="50" height="50" x="1432" y="1186"><style>.st0{fill:#FFFFFF;}</style><path class="st0" d="M49.8 24.8C49.8 11.2 38.7 0 25 0S.2 11.2.2 24.8c0 7.5 3.4 14.3 8.7 18.9l.3.3c4.3 3.8 9.9 6 15.8 6s11.5-2.2 15.8-5.6c.3 0 .3-.3.6-.3 5-5.3 8.4-11.8 8.4-19.3zm-47.5 0C2.3 12.4 12.6 2.2 25 2.2s22.7 10.2 22.7 22.7c0 6.2-2.5 11.5-6.2 15.5-.6-3.1-2.5-8.1-8.4-11.5 1.2-1.6 2.2-3.7 2.2-6.2 0-5.6-4.3-9.9-9.9-9.9s-9.9 4.3-9.9 9.9c0 2.2.9 4.3 2.2 6.2-5.9 3.4-7.8 8.4-8.4 11.5-4.5-4.1-7-9.3-7-15.6zM17.5 23c0-4 3.4-7.5 7.5-7.5s7.5 3.4 7.5 7.5-3.5 7.4-7.5 7.4c-4 .3-7.5-3.1-7.5-7.4zM11 42.5c0-1.9 1.2-8.1 8.1-11.5 1.9 1.2 3.7 2.2 6.2 2.2 2.2 0 4.3-.9 6.2-2.2 6.8 3.4 7.8 9.6 8.1 11.5-3.7 3.1-8.7 5-14.3 5-5.6 0-10.5-1.8-14.3-5z"/></svg>
<svg id="profile-hover_24-24" viewBox="0 0 24 24" width="24" height="24" x="1482" y="1236"><style>.st0{fill:#BCA480;}</style><path class="st0" d="M23.9 11.9C23.9 5.4 18.6 0 12 0S.1 5.4.1 11.9c0 3.6 1.6 6.9 4.2 9.1l.1.1C6.5 23 9.2 24 12 24s5.5-1 7.6-2.7c.1 0 .1-.1.3-.1 2.4-2.6 4-5.7 4-9.3zm-22.8 0C1.1 6 6 1 12 1s10.9 5 10.9 10.9c0 3-1.2 5.5-3 7.5-.3-1.5-1.2-3.9-4-5.5.6-.7 1-1.8 1-3 0-2.7-2.1-4.8-4.8-4.8s-4.8 2.1-4.8 4.8c0 1 .4 2.1 1 3-2.8 1.6-3.7 4-4 5.5-2-2-3.2-4.5-3.2-7.5zm7.3-.9c0-1.9 1.6-3.6 3.6-3.6S15.6 9 15.6 11 14 14.6 12 14.6c-1.9.2-3.6-1.5-3.6-3.6zm-3.1 9.4c0-.9.6-3.9 3.9-5.5.9.6 1.8 1 3 1 1 0 2.1-.4 3-1 3.3 1.6 3.7 4.6 3.9 5.5-1.8 1.5-4.2 2.4-6.9 2.4s-5.1-.9-6.9-2.4z"/></svg>
<svg id="profile_24-24" viewBox="0 0 24 24" width="24" height="24" x="1506" y="1260"><style>.st0{fill:#FFFFFF;}</style><path class="st0" d="M23.9 11.9C23.9 5.4 18.6 0 12 0S.1 5.4.1 11.9c0 3.6 1.6 6.9 4.2 9.1l.1.1C6.5 23 9.2 24 12 24s5.5-1 7.6-2.7c.1 0 .1-.1.3-.1 2.4-2.6 4-5.7 4-9.3zm-22.8 0C1.1 6 6 1 12 1s10.9 5 10.9 10.9c0 3-1.2 5.5-3 7.5-.3-1.5-1.2-3.9-4-5.5.6-.7 1-1.8 1-3 0-2.7-2.1-4.8-4.8-4.8s-4.8 2.1-4.8 4.8c0 1 .4 2.1 1 3-2.8 1.6-3.7 4-4 5.5-2-2-3.2-4.5-3.2-7.5zm7.3-.9c0-1.9 1.6-3.6 3.6-3.6S15.6 9 15.6 11 14 14.6 12 14.6c-1.9.2-3.6-1.5-3.6-3.6zm-3.1 9.4c0-.9.6-3.9 3.9-5.5.9.6 1.8 1 3 1 1 0 2.1-.4 3-1 3.3 1.6 3.7 4.6 3.9 5.5-1.8 1.5-4.2 2.4-6.9 2.4s-5.1-.9-6.9-2.4z"/></svg>
<svg id="samples-color_40-40" viewBox="0 0 40 40" width="40" height="40" x="1530" y="1284"><style>.st0{fill:#72B15F;}</style><path class="st0" d="M34.8 11.4c0-.1 0-.1-.1-.2 0 0-.1-.1-.1-.2L23.8.3s-.1-.1-.2-.1c0 0-.1 0-.2-.1H7.8C6.4 0 5.2 1.2 5.2 2.6v34.9c0 1.4 1.2 2.6 2.6 2.6h24.4c1.4 0 2.6-1.2 2.6-2.6V11.6v-.2zm-3.1-.7h-7.6V3.1l7.6 7.6zM33 37.4c0 .4-.3.8-.8.8H7.8c-.4 0-.8-.3-.8-.8V2.6c0-.4.3-.8.8-.8h14.5v9.7c0 .5.4.9.9.9H33v25zm-4.1-9.3c0 .5-.4.9-.9.9H11.9c-.5 0-.9-.4-.9-.9s.4-.9.9-.9H28c.5 0 .9.4.9.9zm0 5.3c0 .5-.4.9-.9.9H11.9c-.5 0-.9-.4-.9-.9s.4-.9.9-.9H28c.5.1.9.4.9.9zm0-10.6c0 .5-.4.9-.9.9H11.9c-.5 0-.9-.4-.9-.9s.4-.9.9-.9H28c.5 0 .9.4.9.9zm-17-6.2H28c.5 0 .9.4.9.9s-.4.9-.9.9H11.9c-.5 0-.9-.4-.9-.9s.4-.9.9-.9zm-.9-4.4c0-.5.4-.9.9-.9h5.6c.5 0 .9.4.9.9s-.4.9-.9.9H12c-.6 0-1-.4-1-.9zm0-5.3c0-.5.3-.9.8-.9h5.6c.5 0 .9.4.9.9s-.4.9-.9.9h-5.5c-.5 0-.9-.4-.9-.9z"/></svg>
<svg id="smartphones_10-16" viewBox="0 0 10 16" width="10" height="16" x="1570" y="1324"><style>.st0{fill:#E0E0E0;}</style><path class="st0" d="M8.9 0H1.2C.7 0 .3.4.3.9v14.2c0 .5.4.9.9.9h7.6c.5 0 .9-.4.9-.9V.8c.1-.5-.3-.8-.8-.8zM1.3.7h7.6c.1 0 .1.1.1.1V2H1.1V.8s.1-.1.2-.1zm7.8 2.1v9.9H1.3V2.8h7.8zm-.2 12.4H1.2c-.1 0-.1-.1-.1-.1v-1.6H9l-.1 1.7c.2-.1.1 0 0 0zm-3.4-.9c0 .2-.2.4-.4.4s-.4-.2-.4-.4.2-.4.4-.4.4.2.4.4z"/></svg>
<svg id="targets-color_40-40" viewBox="0 0 40 40" width="40" height="40" x="1580" y="1340"><style>.st0{fill:#E0E0E0;}</style><path class="st0" d="M29 18.5l-9.6-9.3c-.2-.1-.5-.5-1.1-.5-.5 0-1 .3-1.2 1.2v4.5H1.9l-.5 1.9h16.7c.5 0 .9-.4.9-.9v-3.7l8.6 8.4.1.1s0 .1-.1.1L19 28.6v-3.7c0-.5-.5-.9-1-.9H1.4l.6 1.8h15.1V30c.1.9.7 1.3 1.2 1.3.6 0 .9-.4 1.1-.5l9.6-9.3c.6-.5.7-1.1.7-1.5 0-.8-.5-1.3-.7-1.5z"/><path class="st0" d="M20 0C9 0 0 9 0 20s9 20 20 20 20-9 20-20S31 0 20 0zm0 38.5c-10.3 0-18.6-8.3-18.6-18.6C1.4 9.7 9.7 1.3 20 1.3s18.6 8.3 18.6 18.6S30.3 38.5 20 38.5z"/></svg>
<svg id="targets-white_40-40" viewBox="0 0 40 40" width="40" height="40" x="1620" y="1380"><style>.st0{fill:#FFFFFF;}</style><path class="st0" d="M29 18.5l-9.6-9.3c-.2-.1-.5-.5-1.1-.5-.5 0-1 .3-1.2 1.2v4.5H1.9l-.5 1.9h16.7c.5 0 .9-.4.9-.9v-3.7l8.6 8.4.1.1s0 .1-.1.1L19 28.6v-3.7c0-.5-.5-.9-1-.9H1.4l.6 1.8h15.1V30c.1.9.7 1.3 1.2 1.3.6 0 .9-.4 1.1-.5l9.6-9.3c.6-.5.7-1.1.7-1.5 0-.8-.5-1.3-.7-1.5z"/><path class="st0" d="M20 0C9 0 0 9 0 20s9 20 20 20 20-9 20-20S31 0 20 0zm0 38.5c-10.3 0-18.6-8.3-18.6-18.6C1.4 9.7 9.7 1.3 20 1.3s18.6 8.3 18.6 18.6S30.3 38.5 20 38.5z"/></svg>
<svg id="timer_40-40" viewBox="0 0 40 40" width="40" height="40" x="1660" y="1420"><style>.st0{fill:#B7D74C;opacity:0.5;}</style><path class="st0" d="M20.8 2.4v-.8h4.4c.3 0 .6-.2.6-.8 0-.5-.3-.8-.6-.8H14.9c-.3 0-.6.2-.6.8 0 .5.3.8.6.8h4.3v.8c-10 .4-18 8.6-18 18.8C1.2 31.6 9.7 40 20 40c10.4 0 18.8-8.5 18.8-18.8 0-10.2-8.1-18.4-18-18.8zM20 38.5c-9.6 0-17.3-7.8-17.3-17.3 0-9.6 7.8-17.3 17.3-17.3 9.6 0 17.3 7.8 17.3 17.3S29.6 38.5 20 38.5z"/><path class="st0" d="M20 7.7c-.4 0-.8.3-.8.7v12H8.5c-.4 0-.7.4-.7.8s.3.8.7.8H20c.4 0 .8-.4.8-.8V8.4c0-.4-.4-.7-.8-.7z"/></svg>
<svg id="totop_30-18" viewBox="0 0 30 18" width="30" height="18" x="1700" y="1460"><style>.st0{fill:#E0E0E0;}</style><path class="st0" d="M30 16.4l-.8.7L15 2.5.8 17.1l-.8-.7L15 .9z"/></svg>
<svg id="userbox-hover_40-45" viewBox="0 0 40 45" width="40" height="45" x="1730" y="1478"><style>.st0{fill:#72B15F;}.st1{fill:#FFFFFF;}.st2{fill:none;stroke:#72B15F;stroke-width:1.5;stroke-linecap:round;stroke-linejoin:round;stroke-miterlimit:10;}</style><path class="st0" d="M40 20C40 9 31 0 20 0S0 9 0 20c0 6 2.8 11.5 7 15.2l.3.2c3.5 3 8 4.8 12.8 4.8s9.3-1.8 12.8-4.5c.3 0 .3-.2.5-.2C37.2 31.1 40 25.9 40 20zM1.7 20C1.7 10 10 1.8 20 1.8S38.3 10 38.3 20c0 5-2 9.3-5 12.5-.5-2.5-2-6.5-6.8-9.3 1-1.3 1.8-3 1.8-5 0-4.5-3.5-8-8-8s-8 3.5-8 8c0 1.8.8 3.5 1.8 5-4.8 2.7-6.3 6.8-6.8 9.3-3.6-3.4-5.6-7.6-5.6-12.5zM14 18.5c0-3.2 2.8-6 6-6s6 2.7 6 6-2.8 6-6 6c-3.3.1-6-2.5-6-6zM8.7 34.1c0-1.5 1-6.5 6.5-9.3 1.5 1 3 1.8 5 1.8 1.8 0 3.5-.7 5-1.8 5.5 2.7 6.3 7.7 6.5 9.3-3 2.5-7 4-11.5 4s-8.5-1.5-11.5-4z"/><path class="st1" d="M22.2 44.3c-1.5 0-2.8-1.2-2.8-2.8v-8c0-1.5 1.2-2.8 2.8-2.8h14.3c1.5 0 2.8 1.2 2.8 2.8v8c0 1.5-1.2 2.8-2.8 2.8H22.2z"/><path class="st0" d="M36.5 31.5c1.1 0 2 .9 2 2v8c0 1.1-.9 2-2 2H22.2c-1.1 0-2-.9-2-2v-8c0-1.1.9-2 2-2h14.3m0-1.5H22.2c-1.9 0-3.5 1.6-3.5 3.5v8c0 1.9 1.6 3.5 3.5 3.5h14.3c1.9 0 3.5-1.6 3.5-3.5v-8c0-1.9-1.6-3.5-3.5-3.5z"/><path class="st2" d="M23.4 40.6h12M23.4 37.7h12M23.4 34.8h6"/></svg>
<svg id="userbox_40-45" viewBox="0 0 40 45" width="40" height="45" x="1770" y="1523"><style>.st0{fill:#E0E0E0;}.st1{fill:#FFFFFF;}.st2{fill:none;stroke:#E0E0E0;stroke-width:1.5;stroke-linecap:round;stroke-linejoin:round;stroke-miterlimit:10;}</style><path class="st0" d="M40 20C40 9 31 0 20 0S0 9 0 20c0 6 2.8 11.5 7 15.2l.3.2c3.5 3 8 4.8 12.8 4.8s9.3-1.8 12.8-4.5c.3 0 .3-.2.5-.2C37.2 31.1 40 25.9 40 20zM1.7 20C1.7 10 10 1.8 20 1.8S38.3 10 38.3 20c0 5-2 9.3-5 12.5-.5-2.5-2-6.5-6.8-9.3 1-1.3 1.8-3 1.8-5 0-4.5-3.5-8-8-8s-8 3.5-8 8c0 1.8.8 3.5 1.8 5-4.8 2.7-6.3 6.8-6.8 9.3-3.6-3.4-5.6-7.6-5.6-12.5zM14 18.5c0-3.2 2.8-6 6-6s6 2.7 6 6-2.8 6-6 6c-3.3.1-6-2.5-6-6zM8.7 34.1c0-1.5 1-6.5 6.5-9.3 1.5 1 3 1.8 5 1.8 1.8 0 3.5-.7 5-1.8 5.5 2.7 6.3 7.7 6.5 9.3-3 2.5-7 4-11.5 4s-8.5-1.5-11.5-4z"/><path class="st1" d="M22.2 44.3c-1.5 0-2.8-1.2-2.8-2.8v-8c0-1.5 1.2-2.8 2.8-2.8h14.3c1.5 0 2.8 1.2 2.8 2.8v8c0 1.5-1.2 2.8-2.8 2.8H22.2z"/><path class="st0" d="M36.5 31.5c1.1 0 2 .9 2 2v8c0 1.1-.9 2-2 2H22.2c-1.1 0-2-.9-2-2v-8c0-1.1.9-2 2-2h14.3m0-1.5H22.2c-1.9 0-3.5 1.6-3.5 3.5v8c0 1.9 1.6 3.5 3.5 3.5h14.3c1.9 0 3.5-1.6 3.5-3.5v-8c0-1.9-1.6-3.5-3.5-3.5z"/><path class="st2" d="M23.4 40.6h12M23.4 37.7h12M23.4 34.8h6"/></svg>
<svg id="zoom-color_16-16" viewBox="0 0 16 16" width="16" height="16" x="1810" y="1568"><style>.st0{fill:#72B15F;}</style><path class="st0" d="M12 8.8zM15.5 13l-3.4-3.4C13.4 7.1 13 4 11 1.9 8.5-.7 4.4-.7 1.9 1.9s-2.5 6.6 0 9.2c2.1 2.1 5.4 2.5 7.9 1l3.4 3.4c.3.3.8.5 1.2.5.5 0 .9-.2 1.2-.5.6-.7.6-1.8-.1-2.5zM2.3 10.7C0 8.4 0 4.6 2.3 2.3c2.3-2.3 6-2.3 8.3 0s2.3 6.1 0 8.4c-2.3 2.3-6 2.3-8.3 0zm11.2 4.4l-3.3-3.3c.2-.2.5-.4.7-.6.3-.3.6-.6.8-1l3.3 3.4c.3.3.5 1.1 0 1.6-.4.4-1.2.2-1.5-.1z"/><path class="st0" d="M6.4 1.9C3.8 1.9 1.8 4 1.8 6.6s2 4.7 4.6 4.7S11 9.1 11 6.5 9 1.9 6.4 1.9zm0 8.8c-2.3 0-4.1-1.9-4.1-4.2s1.8-4.2 4.1-4.2 4.1 1.9 4.1 4.2-1.8 4.2-4.1 4.2z"/></svg>
<svg id="zoom-color_40-40" viewBox="0 0 40 40" width="40" height="40" x="1826" y="1584"><style>.st0{fill:#E0E0E0;}</style><path class="st0" d="M29.9 22.1zM38.7 32.5L30.2 24c3.3-6.1 2.4-13.9-2.8-19C21.1-1.3 11-1.3 4.7 5c-6.3 6.3-6.3 16.4 0 22.7 5.3 5.3 13.5 6.1 19.7 2.4l8.5 8.5c.8.8 1.9 1.2 3 1.2 1.2 0 2.2-.4 2.9-1.3 1.6-1.6 1.6-4.3-.1-6zm-33-5.8C0 21 0 11.7 5.7 5.9c5.7-5.7 15-5.7 20.8 0s5.7 15 0 20.8c-5.8 5.8-15.1 5.8-20.8 0zm28.1 10.8l-8.2-8.2 1.8-1.5c.8-.8 1.5-1.6 2-2.5l8.3 8.3c.8.8 1.3 2.7 0 4-1.2 1.2-3.1.7-3.9-.1z"/><path class="st0" d="M16.1 4.9C9.7 4.9 4.6 10 4.6 16.4s5.1 11.5 11.5 11.5 11.5-5.1 11.5-11.5S22.4 4.9 16.1 4.9zm0 21.7c-5.7 0-10.3-4.6-10.3-10.3C5.8 10.6 10.4 6 16.1 6c5.7 0 10.3 4.6 10.3 10.3 0 5.7-4.6 10.3-10.3 10.3z"/></svg>
<svg id="zoom-white_40-40" viewBox="0 0 40 40" width="40" height="40" x="1866" y="1624"><style>.st0{fill:#FFFFFF;}</style><path class="st0" d="M29.9 22.1zM38.7 32.5L30.2 24c3.3-6.1 2.4-13.9-2.8-19C21.1-1.3 11-1.3 4.7 5c-6.3 6.3-6.3 16.4 0 22.7 5.3 5.3 13.5 6.1 19.7 2.4l8.5 8.5c.8.8 1.9 1.2 3 1.2 1.2 0 2.2-.4 2.9-1.3 1.6-1.6 1.6-4.3-.1-6zm-33-5.8C0 21 0 11.7 5.7 5.9c5.7-5.7 15-5.7 20.8 0s5.7 15 0 20.8c-5.8 5.8-15.1 5.8-20.8 0zm28.1 10.8l-8.2-8.2 1.8-1.5c.8-.8 1.5-1.6 2-2.5l8.3 8.3c.8.8 1.3 2.7 0 4-1.2 1.2-3.1.7-3.9-.1z"/><path class="st0" d="M16.1 4.9C9.7 4.9 4.6 10 4.6 16.4s5.1 11.5 11.5 11.5 11.5-5.1 11.5-11.5S22.4 4.9 16.1 4.9zm0 21.7c-5.7 0-10.3-4.6-10.3-10.3C5.8 10.6 10.4 6 16.1 6c5.7 0 10.3 4.6 10.3 10.3 0 5.7-4.6 10.3-10.3 10.3z"/></svg>
</svg>